<ttFont>
<head>
    <!-- Most of this table will be recalculated by the compiler -->
    <tableVersion value="1.0"/>
    <fontRevision value="3.2"/>
    <checkSumAdjustment value="0xd50b2f93"/>
    <magicNumber value="0x5f0f3cf5"/>
    <flags value="00000000 00000011"/>
    <unitsPerEm value="1000"/>
    <created value="Fri Dec 22 02:07:34 2017"/>
    <modified value="Fri Dec 22 02:07:34 2017"/>
    <xMin value="-528"/>
    <yMin value="-572"/>
    <xMax value="2629"/>
    <yMax value="1065"/>
    <macStyle value="00000000 00000010"/>
    <lowestRecPPEM value="3"/>
    <fontDirectionHint value="2"/>
    <indexToLocFormat value="0"/>
    <glyphDataFormat value="0"/>
  </head>
          <CharString index="0">
            -106 callsubr
            -35 -201 rlineto
            80 hlineto
            return
          </CharString>
          <CharString index="1">
            -101 callgsubr
            -72 callsubr
            return
          </CharString>
          <CharString index="2">
            60 callsubr
            -100 -18 -71 -60 -84 hhcurveto
            -14 -17 2 3 -13 hvcurveto
            -11 -65 rlineto
            -5 17 23 -3 23 hhcurveto
            120 104 85 147 26 hvcurveto
            133 24 -72 92 -120 hhcurveto
            -91 -66 -45 -60 -39 hvcurveto
            38 216 rlineto
            480 -93 callsubr
            return
          </CharString>
          <CharString index="3">
            31 29 24 31 5 hvcurveto
            32 5 -20 25 -31 hhcurveto
            -32 -29 -25 -32 -5 hvcurveto
            -31 -5 20 -24 32 hhcurveto
            return
          </CharString>
          <CharString index="4">
            0 callgsubr
            373 -67 callgsubr
            -200 -83 callsubr
            return
          </CharString>
          <CharString index="5">
            -53 callsubr
            140 121 70 145 27 hvcurveto
            133 25 -80 81 -121 hhcurveto
            -139 -98 -99 -150 -5 hvcurveto
            83 hlineto
            98 58 78 93 72 43 -52 -81 -14 vhcurveto
            -105 -19 -97 -47 -104 hhcurveto
            -146 hlineto
            -31 -175 94 callgsubr
            return
          </CharString>
          <CharString index="6">
            92 hlineto
            57 321 rlineto
            3 20 2 19 16 vvcurveto
            121 -81 65 -113 -141 -90 -85 -115 -37 vhcurveto
            89 hlineto
            80 27 60 44 74 hhcurveto
            78 40 -43 -78 -13 -1 -14 -3 -15 hvcurveto
            -169 hlineto
            -140 -109 -74 -116 -89 63 -54 96 96 84 48 58 40 hvcurveto
            -284 55 rmoveto
            58 51 49 92 vhcurveto
            169 hlineto
            -2 -13 rlineto
            -117 -21 -104 -59 -85 hhcurveto
            -63 -37 32 50 hvcurveto
            endchar
          </CharString>
          <CharString index="7">
            rmoveto
            -99 callsubr
            return
          </CharString>
          <CharString index="8">
            -77 -43 50 72 12 118 callgsubr
            -69 -13 -61 -54 -72 hhcurveto
            return
          </CharString>
          <CharString index="9">
            -139 -25 66 -50 callsubr
            return
          </CharString>
          <CharString index="10">
            hlineto
            -30 -165 149 callsubr
            -70 hhcurveto
            -68 -32 53 77 14 hvcurveto
            256 callsubr
            -84 hlineto
            -29 -164 160 callgsubr
            return
          </CharString>
          <CharString index="11">
            hhcurveto
            72 58 32 50 39 hvcurveto
            -49 -279 -88 callsubr
            return
          </CharString>
          <CharString index="12">
            hlineto
            -55 callsubr
            return
          </CharString>
          <CharString index="13">
            -165 -28 103 -84 149 252 callgsubr
            return
          </CharString>
          <CharString index="14">
            hlineto
            -64 callgsubr
            return
          </CharString>
          <CharString index="15">
            hhcurveto
            -148 -100 callgsubr
            return
          </CharString>
          <CharString index="16">
            rmoveto
            53 hlineto
            30 9 19 14 22 40 12 -46 54 hhcurveto
            52 46 36 68 21 hvcurveto
            -53 hlineto
            -29 -9 -20 -14 -22 -42 -11 46 -53 hhcurveto
            -52 -45 -36 -69 -21 hvcurveto
            return
          </CharString>
          <CharString index="17">
            -85 callsubr
            202 hlineto
            return
          </CharString>
          <CharString index="18">
            35 609 548 rmoveto
            -91 hlineto
            -54 -304 rlineto
            3 vlineto
            -118 -19 -75 -58 -93 hhcurveto
            -92 -50 57 111 19 hvcurveto
            54 309 rlineto
            -90 hlineto
            -57 -321 rlineto
            -157 -27 85 -78 126 hhcurveto
            72 73 31 57 45 hvcurveto
            return
          </CharString>
          <CharString index="19">
            rlineto
            -94 callgsubr
            return
          </CharString>
          <CharString index="20">
            35 600 328 rmoveto
            139 -96 90 -139 -190 -140 -151 -187 -137 93 -91 139 189 144 149 188 vhcurveto
            -471 -105 rmoveto
            136 89 121 134 83 71 -51 -106 -134 -95 -121 -133 -82 -67 52 103 vhcurveto
            return
          </CharString>
          <CharString index="21">
            294 callgsubr
            -76 hlineto
            -95 -17 -84 -41 -65 hhcurveto
            -94 -52 64 96 16 hvcurveto
            109 20 93 53 105 hhcurveto
            148 hlineto
            32 182 rlineto
            143 -93 callsubr
            return
          </CharString>
          <CharString index="22">
            79 125 23 -77 callsubr
            return
          </CharString>
          <CharString index="23">
            118 -71 callgsubr
            return
          </CharString>
          <CharString index="24">
            164 callgsubr
            62 -72 callgsubr
            return
          </CharString>
          <CharString index="25">
            rmoveto
            3 18 rlineto
            -54 hlineto
            -48 -9 -29 -28 -64 hhcurveto
            -64 -19 28 48 8 hvcurveto
            -54 hlineto
            -3 -17 rlineto
            -74 -12 40 -57 92 hhcurveto
            92 60 56 74 13 hvcurveto
            return
          </CharString>
          <CharString index="26">
            -26 callsubr
            rrcurveto
            -18 -375 -75 callgsubr
            return
          </CharString>
          <CharString index="27">
            -85 callgsubr
            146 rlineto
            return
          </CharString>
          <CharString index="28">
            98 17 -60 68 -97 hhcurveto
            -91 -74 -50 -88 -15 hvcurveto
            -1 -9 -1 -12 -9 vvcurveto
            61 hlineto
            6 1 8 1 6 vhcurveto
            54 9 45 33 52 hhcurveto
            58 34 -43 -60 -10 hvcurveto
            -80 -15 -80 -53 -96 hhcurveto
            -135 -71 88 123 22 hvcurveto
            146 25 119 71 131 hhcurveto
            return
          </CharString>
          <CharString index="29">
            288 hlineto
            -21 -121 rlineto
            -119 -20 -70 -31 -79 85 callsubr
            -151 -27 88 346 callgsubr
            return
          </CharString>
          <CharString index="30">
            -29 callgsubr
            81 212 callsubr
            14 83 rcurveline
            return
          </CharString>
          <CharString index="31">
            hlineto
            -91 -96 -36 -105 -18 hvcurveto
            -52 callgsubr
            return
          </CharString>
          <CharString index="32">
            186 callgsubr
            -110 -95 -62 -114 -19 hvcurveto
            116 callsubr
            return
          </CharString>
          <CharString index="33">
            -92 524 698 rmoveto
            -374 hlineto
            -124 -698 rlineto
            375 hlineto
            13 72 rlineto
            -284 hlineto
            44 245 rlineto
            253 -95 callgsubr
            -253 hlineto
            42 239 rlineto
            283 hlineto
            return
          </CharString>
          <CharString index="34">
            -31 callgsubr
            109 94 70 114 19 106 callgsubr
            return
          </CharString>
          <CharString index="35">
            -26 80 -65 callsubr
            return
          </CharString>
          <CharString index="36">
            hlineto
            -12 -70 rlineto
            -48 callsubr
            return
          </CharString>
          <CharString index="37">
            hhcurveto
            91 69 43 60 43 hvcurveto
            -35 -199 rlineto
            81 144 callgsubr
            endchar
          </CharString>
          <CharString index="38">
            -77 -106 -21 -36 callsubr
            return
          </CharString>
          <CharString index="39">
            -40 hlineto
            -12 -68 rlineto
            40 hlineto
            55 33 -20 -27 17 hvcurveto
            -5 3 vlineto
            11 -22 3 -27 -5 -26 rrcurveto
            -76 -13 -59 -52 -82 hhcurveto
            -80 -48 55 76 13 hvcurveto
            -79 hlineto
            -121 -21 78 -82 130 hhcurveto
            122 94 76 117 21 hvcurveto
            5 28 -1 29 -8 25 158 -1 rcurveline
            -57 -327 rlineto
            return
          </CharString>
          <CharString index="40">
            147 callsubr
            -102 -18 75 callgsubr
            return
          </CharString>
          <CharString index="41">
            99 callsubr
            147 hhcurveto
            100 80 53 59 44 hvcurveto
            -20 -115 rlineto
            -117 -21 -84 -62 -97 hhcurveto
            -90 -57 45 66 -8 hvcurveto
            -91 hlineto
            -117 -3 91 -73 144 hhcurveto
            160 120 107 151 27 hvcurveto
            99 560 rlineto
            -92 hlineto
            -18 -100 rlineto
            59 -21 -64 50 -99 -92 callsubr
            return
          </CharString>
          <CharString index="42">
            -91 123 hhcurveto
            89 65 44 59 39 hvcurveto
            return
          </CharString>
          <CharString index="43">
            hhcurveto
            40 hlineto
            71 65 -25 -83 -15 hvcurveto
            -60 -10 -56 -45 -86 hhcurveto
            -104 -45 55 74 12 hvcurveto
            -83 hlineto
            return
          </CharString>
          <CharString index="44">
            131 -95 callgsubr
            return
          </CharString>
          <CharString index="45">
            hhcurveto
            107 96 70 114 -31 callsubr
            return
          </CharString>
          <CharString index="46">
            rrcurveto
            -55 callgsubr
            return
          </CharString>
          <CharString index="47">
            -43 callsubr
            173 -268 rmoveto
            -105 callsubr
            return
          </CharString>
          <CharString index="48">
            -68 -33 50 71 13 hvcurveto
            52 295 rlineto
            217 hlineto
            -52 -295 rlineto
            -71 -12 -49 -50 -68 hhcurveto
            return
          </CharString>
          <CharString index="49">
            555 rmoveto
            -85 -62 -43 -58 -37 hvcurveto
            38 216 rlineto
            472 hlineto
            -12 -69 -19 -103 -58 -44 -85 -10 rlinecurve
            63 -15 -48 48 -89 hhcurveto
            -468 -387 -106 callgsubr
            797 31 callsubr
            -364 305 rmoveto
            84 30 -56 -56 -1 hvcurveto
            -160 -21 89 -103 159 4 callsubr
            131 hlineto
            13 70 rlineto
            return
          </CharString>
          <CharString index="50">
            15 callgsubr
            13 43 62 callsubr
            return
          </CharString>
          <CharString index="51">
            -8 callsubr
            -225 rlineto
            -152 -27 78 -101 139 hhcurveto
            return
          </CharString>
          <CharString index="52">
            -12 -70 rlineto
            return
          </CharString>
          <CharString index="53">
            rmoveto
            70 12 63 41 62 hhcurveto
            66 46 -44 -68 -12 hvcurveto
            -11 -59 -43 -37 -56 -30 -86 3 -54 47 13 77 rrcurveto
            102 -622 rmoveto
            77 hlineto
            49 277 rlineto
            -71 hlineto
            -65 -11 -53 -57 -76 hhcurveto
            -72 -35 50 61 11 hvcurveto
            17 91 88 33 92 42 rrcurveto
            return
          </CharString>
          <CharString index="54">
            rmoveto
            -63 callgsubr
            return
          </CharString>
          <CharString index="55">
            103 callsubr
            -75 -70 -104 -18 hvcurveto
            -57 callsubr
            -93 hlineto
            -111 -93 -62 -114 -21 hvcurveto
            124 callsubr
          </CharString>
          <CharString index="56">
            35 6 -22 27 -34 hhcurveto
            -35 -32 -27 -35 -6 hvcurveto
            -35 -6 22 -27 35 hhcurveto
            34 32 27 35 6 hvcurveto
            return
          </CharString>
          <CharString index="57">
            -109 158 hhcurveto
            -96 callgsubr
            return
          </CharString>
          <CharString index="58">
            -69 callgsubr
            -248 rlineto
            0 vlineto
            -83 -14 -60 -71 -90 hhcurveto
            return
          </CharString>
          <CharString index="59">
            112 hlineto
            -41 -229 rlineto
            -147 -26 57 -97 135 10 callgsubr
            return
          </CharString>
          <CharString index="60">
            rmoveto
            11 227 -349 -45 10 158 rrcurveto
            67 4 58 40 82 hhcurveto
            87 41 -53 -51 -4 hvcurveto
            95 hlineto
            102 5 -79 77 -140 hhcurveto
            -141 -99 -79 -118 -1 hvcurveto
            -7 -221 344 57 -11 -168 rrcurveto
            -71 -4 -57 -39 -87 hhcurveto
            -96 -39 60 59 4 hvcurveto
            -90 hlineto
            return
          </CharString>
          <CharString index="61">
            hlineto
            -22 -121 rlineto
            -114 -32 callsubr
            return
          </CharString>
          <CharString index="62">
            117 -41 callsubr
            return
          </CharString>
          <CharString index="63">
            80 hlineto
            58 332 rlineto
            77 17 57 78 103 hhcurveto
            83 53 -62 -95 -16 hvcurveto
            -101 -18 -74 -58 -81 hhcurveto
            -14 -16 1 3 -11 hvcurveto
            -12 -66 rlineto
            -5 18 21 -2 22 hhcurveto
            120 102 81 146 27 hvcurveto
            135 24 -75 95 -121 hhcurveto
            -87 -63 -44 -58 -37 hvcurveto
            37 213 rlineto
            478 -93 callsubr
            -952 -95 callsubr
            394 328 callsubr
            -88 -139 -24 hvcurveto
            -143 -26 80 -91 122 hhcurveto
            90 66 45 59 39 hvcurveto
            -161 -34 rmoveto
            -87 -57 60 102 18 hvcurveto
            97 17 81 60 84 hhcurveto
            109 30 -84 -74 -13 hvcurveto
            1 1 -2 -9 rlineto
            0 vlineto
            -14 -68 -60 -84 -107 -1 rrcurveto
            -557 -176 -102 callsubr
            endchar
          </CharString>
          <CharString index="64">
            rmoveto
            -49 callsubr
            return
          </CharString>
          <CharString index="65">
            242 670 rmoveto
            -63 callsubr
            -132 hlineto
            return
          </CharString>
          <CharString index="66">
            -68 callgsubr
            132 -95 callgsubr
            return
          </CharString>
          <CharString index="67">
            117 -24 callgsubr
            return
          </CharString>
          <CharString index="68">
            rmoveto
            -12 -68 234 114 14 79 rlineto
            return
          </CharString>
          <CharString index="69">
            hlineto
            -50 callgsubr
            return
          </CharString>
          <CharString index="70">
            118 -68 callgsubr
            return
          </CharString>
          <CharString index="71">
            hvcurveto
            -1 -15 rlineto
            69 hlineto
            3 15 return
          </CharString>
          <CharString index="72">
            19 callgsubr
            603 hlineto
            -13 -86 -16 -107 -65 -50 -86 -10 rlinecurve
            80 -15 -65 47 -96 hhcurveto
            -128 -102 5 callgsubr
            722 112 rmoveto
            -127 -58 78 99 14 hvcurveto
            1 2 350 callsubr
            6 88 67 18 130 16 100 rcurveline
            201 hlineto
            -53 -299 rlineto
            1 vlineto
            -113 -18 -97 -77 -112 hhcurveto
            -431 -46 rmoveto
            82 73 34 60 46 hvcurveto
            -72 29 69 -46 107 hhcurveto
            102 77 45 58 46 hvcurveto
            -38 -215 rlineto
            83 hlineto
            119 10 callsubr
            -1472 175 callgsubr
            17 17 -2 19 hhcurveto
            endchar
          </CharString>
          <CharString index="73">
            69 108 19 hvcurveto
            39 225 rlineto
            return
          </CharString>
          <CharString index="74">
            rlineto
            -29 callsubr
            return
          </CharString>
          <CharString index="75">
            -76 callsubr
            -113 -18 83 -80 149 hhcurveto
            return
          </CharString>
          <CharString index="76">
            19 hvcurveto
            10 58 -15 19 callsubr
            return
          </CharString>
          <CharString index="77">
            hlineto
            -48 -273 rlineto
            -49 -8 -26 -52 -67 hhcurveto
            -62 return
          </CharString>
          <CharString index="78">
            83 -56 callgsubr
            return
          </CharString>
          <CharString index="79">
            hhcurveto
            -148 -118 -97 -143 -23 hvcurveto
            -143 -23 94 -96 144 hhcurveto
            return
          </CharString>
          <CharString index="80">
            hlineto
            -51 -287 rlineto
            -118 -22 67 -82 119 hhcurveto
            122 75 85 115 20 hvcurveto
            51 287 rlineto
            return
          </CharString>
          <CharString index="81">
            hlineto
            42 34 35 52 13 75 return
          </CharString>
          <CharString index="82">
            -95 callsubr
            -22 callgsubr
            return
          </CharString>
          <CharString index="83">
            19 callgsubr
            832 155 callgsubr
            -91 -81 -24 -53 -59 hvcurveto
            79 -14 -64 44 -99 hhcurveto
            -127 -99 -77 -127 -22 hvcurveto
            -13 -79 24 -61 51 -34 rrcurveto
            -50 -33 -57 -46 -83 hhcurveto
            289 66 rmoveto
            59 53 16 31 42 hvcurveto
            -119 5 85 -62 129 hhcurveto
            25 hlineto
            12 67 rlineto
            -21 364 callgsubr
            21 92 58 123 hhcurveto
            147 hlineto
            -75 -426 126 callgsubr
            -1418 0 callgsubr
            288 hlineto
            -21 -121 rlineto
            -119 -20 -70 -31 -79 85 callsubr
            -151 -26 87 331 callgsubr
            17 -2 18 hhcurveto
            endchar
          </CharString>
          <CharString index="84">
            -17 callgsubr
            -267 402 371 callgsubr
            -229 rlineto
            return
          </CharString>
          <CharString index="85">
            69 494 hmoveto
            96 hlineto
            -129 693 rlineto
            -105 hlineto
            -374 -693 rlineto
            96 hlineto
            83 155 rlineto
            305 hlineto
            return
          </CharString>
          <CharString index="86">
            -73 70 124 20 hvcurveto
            14 16 0 21 111 callgsubr
            18 -60 77 -111 hhcurveto
            -137 -86 -100 -131 -2 hvcurveto
            76 hlineto
            91 -1 49 68 87 hhcurveto
            68 31 -49 -61 -11 hvcurveto
            -117 -20 -108 -26 -103 hhcurveto
            -97 hlineto
            -187 -56 91 -138 201 return
          </CharString>
          <CharString index="87">
            -101 -40 -14 callsubr
            -263 rlineto
            -77 -20 -60 -62 -90 hhcurveto
            return
          </CharString>
          <CharString index="88">
            rmoveto
            -124 85 -13 -72 124 -83 153 83 13 72 rlineto
            endchar
          </CharString>
          <CharString index="89">
            90 321 callsubr
            157 28 -84 78 -126 hhcurveto
            -74 -72 -31 -58 -46 hvcurveto
            14 79 237 callgsubr
            54 305 rlineto
            -2 vlineto
            118 21 74 58 93 hhcurveto
            92 50 -57 -112 -19 hvcurveto
            return
          </CharString>
          <CharString index="90">
            21 119 -45 85 -87 24 24 133 rcurveline
            246 -93 callsubr
            return
          </CharString>
          <CharString index="91">
            rmoveto
            407 -46 callsubr
            139 81 68 98 18 hvcurveto
            192 callsubr
            return
          </CharString>
          <CharString index="92">
            670 rmoveto
            701 1 callgsubr
            -81 -72 -34 -58 -49 hvcurveto
            53 -25 -49 31 -66 hhcurveto
            -87 -61 -43 -57 58 callgsubr
            766 -5 rmoveto
            -89 callgsubr
            return
          </CharString>
          <CharString index="93">
            -34 callsubr
            299 hlineto
            -46 return
          </CharString>
          <CharString index="94">
            rmoveto
            -86 callsubr
            return
          </CharString>
          <CharString index="95">
            77 74 133 23 hvcurveto
            14 73 callgsubr
            return
          </CharString>
          <CharString index="96">
            -34 -194 rlineto
            13 callsubr
            -662 hlineto
            return
          </CharString>
          <CharString index="97">
            rmoveto
            25 -18 17 -25 -25 -18 -17 -25 -25 18 -17 25 25 18 17 25 vhcurveto
            return
          </CharString>
          <CharString index="98">
            -105 -52 66 98 18 hvcurveto
            18 103 rlineto
            95 return
          </CharString>
          <CharString index="99">
            -95 callsubr
            112 hlineto
            -41 return
          </CharString>
          <CharString index="100">
            407 166 callgsubr
            return
          </CharString>
          <CharString index="101">
            rmoveto
            -182 hlineto
            38 216 rlineto
            182 hlineto
            -1070 -600 rmoveto
            -77 callgsubr
            693 hlineto
            20 callgsubr
            -94 hlineto
            -54 -49 -15 -29 -38 hvcurveto
            85 -10 -65 49 -102 hhcurveto
            -127 -99 5 callgsubr
            291 66 rmoveto
            67 60 22 41 43 hvcurveto
            -61 18 56 -37 80 hhcurveto
            111 75 72 135 186 callsubr
            182 269 callsubr
            132 hlineto
            12 70 rlineto
            -1541 175 callgsubr
            17 17 -2 19 hhcurveto
            endchar
          </CharString>
          <CharString index="102">
            30 callsubr
            endchar
          </CharString>
          <CharString index="103">
            rmoveto
            386 hlineto
            -17 -96 rlineto
            -111 -20 -67 -56 -114 hhcurveto
            -105 hlineto
            -35 -200 rlineto
            -125 -25 63 -91 132 hhcurveto
            120 78 80 123 21 hvcurveto
            4 1 6 1 7 vhcurveto
            -81 hlineto
            -3 -19 rlineto
            -77 -13 -48 -52 -70 hhcurveto
            -78 -32 58 81 16 hvcurveto
            24 137 rlineto
            50 hlineto
            155 87 87 148 27 hvcurveto
            17 96 rlineto
            118 -93 callsubr
            -589 hlineto
            return
          </CharString>
          <CharString index="104">
            63 callgsubr
            -81 rlineto
            return
          </CharString>
          <CharString index="105">
            rmoveto
            -98 -75 66 112 19 hvcurveto
            8 276 callgsubr
            30 233 -242 rcurveline
            -27 -34 -44 -18 -53 hhcurveto
            801 -150 rmoveto
            -84 callsubr
            -1311 -95 callsubr
            1096 hlineto
            -30 -171 rlineto
            -272 315 callsubr
            -51 -53 -71 hhcurveto
            -65 -32 48 68 8 hvcurveto
            1 4 0 4 1 4 rrcurveto
            113 20 -60 125 -173 hhcurveto
            -149 -118 -94 -143 191 callsubr
            -26 94 -99 147 hhcurveto
            102 82 47 67 50 hvcurveto
            -46 21 45 -28 70 hhcurveto
            122 -1 81 227 callgsubr
            17 95 rcurveline
            190 303 callgsubr
            -657 511 rmoveto
            121 45 -94 -88 300 callgsubr
            241 rcurveline
            29 38 47 17 48 hhcurveto
            endchar
          </CharString>
          <CharString index="106">
            hhcurveto
            -133 -90 -80 -94 -29 hvcurveto
            79 hlineto
            49 22 54 53 85 hhcurveto
            101 36 -77 -86 -16 hvcurveto
            -88 -15 -64 -76 -100 hhcurveto
            -83 -36 50 52 -5 hvcurveto
            -79 hlineto
            -92 -3 62 -82 132 hhcurveto
            return
          </CharString>
          <CharString index="107">
            hlineto
            -12 -69 rlineto
            -120 -22 -75 269 callgsubr
            return
          </CharString>
          <CharString index="108">
            rmoveto
            -100 -73 65 215 callgsubr
            18 36 26 29 233 -240 rcurveline
            -27 -34 -44 -18 -53 hhcurveto
            return
          </CharString>
          <CharString index="109">
            rmoveto
            -75 -54 51 91 16 hvcurveto
            87 15 69 50 75 hhcurveto
            97 28 -75 -64 -12 hvcurveto
            -65 -11 -54 -75 -94 hhcurveto
            return
          </CharString>
          <CharString index="110">
            77 45 59 45 125 callgsubr
            return
          </CharString>
          <CharString index="111">
            -19 callgsubr
            -34 callgsubr
            return
          </CharString>
          <CharString index="112">
            hlineto
            117 -71 callgsubr
            return
          </CharString>
          <CharString index="113">
            hhcurveto
            -108 -62 -75 -70 -29 -14 callgsubr
            return
          </CharString>
          <CharString index="114">
            818 480 rmoveto
            97 70 -62 -109 -20 hvcurveto
            -361 hlineto
            108 30 91 63 93 hhcurveto
            204 -311 rmoveto
            -98 hlineto
            -60 -29 -63 -41 -87 hhcurveto
            -85 -79 58 117 11 hvcurveto
            451 hlineto
            6 19 4 16 4 19 rrcurveto
            145 25 -80 115 -156 hhcurveto
            -87 -77 -33 -77 -60 hvcurveto
            17 101 rlineto
            -85 hlineto
            -18 -101 rlineto
            70 -28 -62 40 -91 hhcurveto
            -152 -133 -110 -171 -30 hvcurveto
            134 callsubr
            147 hhcurveto
            95 81 50 64 49 hvcurveto
            -19 -105 rlineto
            86 hlineto
            18 106 rlineto
            -70 24 72 -45 89 hhcurveto
            131 100 78 100 45 hvcurveto
            -888 107 rmoveto
            129 22 99 73 100 hhcurveto
            100 73 -76 -127 -23 hvcurveto
            -129 -23 -99 -75 -100 hhcurveto
            -100 -72 76 255 callsubr
            return
          </CharString>
          <CharString index="115">
            -21 243 263 rmoveto
            -47 -263 rlineto
            91 hlineto
            47 263 304 434 rlineto
            -103 hlineto
            -233 -351 -109 351 rlineto
            -102 hlineto
            return
          </CharString>
          <CharString index="116">
            -59 -46 22 60 11 hvcurveto
            69 12 71 15 53 hhcurveto
            177 hlineto
            7 37 rlineto
            0 vlineto
            26 144 rlineto
            return
          </CharString>
          <CharString index="117">
            -68 callgsubr
            -63 callsubr
            return
          </CharString>
          <CharString index="118">
            rmoveto
            -65 -11 40 -40 57 hhcurveto
            58 53 40 65 12 hvcurveto
            65 11 -38 40 -59 hhcurveto
            -57 -54 -40 -65 -12 hvcurveto
            161 1 rmoveto
            -34 -6 -29 -23 -32 hhcurveto
            -30 -21 23 34 6 hvcurveto
            34 6 28 22 31 hhcurveto
            32 21 -22 -34 -6 hvcurveto
            return
          </CharString>
          <CharString index="119">
            rmoveto
            29 27 23 28 5 hvcurveto
            29 5 -18 23 -30 hhcurveto
            -29 -27 -23 -29 -5 hvcurveto
            -28 -5 18 -23 30 hhcurveto
            -556 328 rmoveto
            412 hlineto
            -21 -121 rlineto
            -120 -76 callsubr
            -14 -90 50 -70 97 -24 -175 -158 rcurveline
            62 callgsubr
            -117 156 96 19 56 60 15 80 rlinecurve
            123 22 -94 48 -104 hhcurveto
            -44 hlineto
            -56 -48 21 62 11 hvcurveto
            68 13 67 15 56 hhcurveto
            176 hlineto
            11 60 rlineto
            -1 hlineto
            22 121 rlineto
            219 -95 callgsubr
            -712 hlineto
            endchar
          </CharString>
          <CharString index="120">
            82 hlineto
            -86 callsubr
            return
          </CharString>
          <CharString index="121">
            -61 callgsubr
            endchar
          </CharString>
          <CharString index="122">
            rmoveto
            192 -114 12 68 -190 125 rlineto
            return
          </CharString>
          <CharString index="123">
            -70 callgsubr
            -558 470 rmoveto
            288 hlineto
            -21 -121 rlineto
            -119 -20 -70 -31 -79 85 callsubr
            -151 -27 88 -95 156 hhcurveto
            -159 -135 rlineto
            -5 92 vlineto
            200 174 47 27 37 40 25 43 rlinecurve
            96 callgsubr
          </CharString>
          <CharString index="124">
            2 3 0 2 hhcurveto
            -248 -213 rlineto
            92 hlineto
            291 257 15 12 13 13 12 14 rlinecurve
            return
          </CharString>
          <CharString index="125">
            3 486 492 rmoveto
            -78 -14 -55 -56 -102 hhcurveto
            -134 hlineto
            47 267 rlineto
            133 hlineto
            104 36 -52 -81 -15 hvcurveto
            -336 205 rmoveto
            285 callsubr
            51 285 rlineto
            109 hlineto
            116 -285 rlineto
            109 hlineto
            -123 292 121 26 64 85 16 89 rlinecurve
            114 20 -62 91 -164 hhcurveto
            return
          </CharString>
          <CharString index="126">
            45 -26 30 rrcurveto
            196 hlineto
            -77 -434 rlineto
            return
          </CharString>
          <CharString index="127">
            hhcurveto
            -12 callgsubr
            return
          </CharString>
          <CharString index="128">
            129 15 83 rcurveline
            201 42 callsubr
            return
          </CharString>
          <CharString index="129">
            63 104 18 hvcurveto
            102 18 return
          </CharString>
          <CharString index="130">
            270 callsubr
            43 hlineto
            87 43 -6 -173 65 hvcurveto
            80 -83 -33 2 -99 hhcurveto
            -40 hlineto
            -10 -54 rlineto
            42 hlineto
            105 23 -5 -90 100 hvcurveto
            -138 345 callsubr
            return
          </CharString>
          <CharString index="131">
            -70 callgsubr
            -558 470 rmoveto
            288 hlineto
            -21 -121 rlineto
            -119 -20 -70 -31 -79 hhcurveto
            -35 hlineto
            -28 -156 rlineto
            -151 -27 88 -95 157 hhcurveto
            114 82 66 78 45 hvcurveto
            96 callgsubr
          </CharString>
          <CharString index="132">
            rmoveto
            -183 hlineto
            38 216 rlineto
            183 hlineto
            return
          </CharString>
          <CharString index="133">
            134 179 callgsubr
            83 hlineto
            134 25 -76 95 -120 hhcurveto
            -87 -63 -44 -58 -38 hvcurveto
            38 213 rlineto
            382 -95 callgsubr
            -952 -95 callsubr
            490 hlineto
            113 callgsubr
            59 -18 -51 45 -92 hhcurveto
            return
          </CharString>
          <CharString index="134">
            rmoveto
            -75 hlineto
            -44 -21 -56 -51 -83 hhcurveto
            -101 -44 72 92 17 hvcurveto
            92 17 69 76 98 hhcurveto
            64 37 -33 -31 14 hvcurveto
            -135 -116 rlineto
            79 hlineto
            131 115 rlineto
            70 -8 -67 59 -108 hhcurveto
            -18 -17 -2 -3 -17 hvcurveto
            -40 13 -24 28 8 42 rrcurveto
            60 11 53 21 56 hhcurveto
            183 hlineto
            11 61 21 117 rlineto
            141 -93 callsubr
            -639 134 callgsubr
            -11 -61 32 -41 43 -20 -77 -38 -52 -72 -16 -88 rrcurveto
            -130 -24 72 -107 150 hhcurveto
            128 88 77 85 27 hvcurveto
            endchar
          </CharString>
          <CharString index="135">
            hhcurveto
            -88 -96 -46 -124 -22 hvcurveto
            -6 -34 0 -34 5 -33 rrcurveto
            70 hlineto
            -5 33 -1 32 6 28 rrcurveto
            84 14 62 32 49 hhcurveto
            56 47 -48 -96 -17 hvcurveto
            -154 -28 -139 -91 -175 hhcurveto
            return
          </CharString>
          <CharString index="136">
            89 560 rmoveto
            -91 -16 52 -57 84 hhcurveto
            83 73 57 91 16 hvcurveto
            91 16 -53 56 -83 hhcurveto
            -84 -72 -56 -91 -16 hvcurveto
            162 91 rmoveto
            44 24 -31 -60 -10 hvcurveto
            -60 -11 -35 -31 -44 hhcurveto
            -45 -24 31 60 11 hvcurveto
            60 10 35 31 45 hhcurveto
            -213 -651 rmoveto
            91 hlineto
            528 698 rlineto
            -90 hlineto
            -250 -560 rmoveto
            -91 -16 52 -57 84 hhcurveto
            83 72 57 91 16 hvcurveto
            92 16 -53 56 -82 hhcurveto
            -84 -72 -56 -92 -16 hvcurveto
            161 91 rmoveto
            44 24 -30 -61 -10 hvcurveto
            -60 -11 -35 -30 -44 hhcurveto
            -44 -25 30 60 11 hvcurveto
            61 11 35 30 44 hhcurveto
            return
          </CharString>
          <CharString index="137">
            77 callgsubr
            83 hlineto
            return
          </CharString>
          <CharString index="138">
            14 rmoveto
            -104 callgsubr
            return
          </CharString>
          <CharString index="139">
            rmoveto
            -98 -554 -268 554 rlineto
            -91 hlineto
            -124 -698 rlineto
            91 hlineto
            99 555 267 -555 rlineto
            91 hlineto
            124 698 rlineto
            return
          </CharString>
          <CharString index="140">
            158 callsubr
            -14 -89 49 -69 94 -25 -176 -159 rcurveline
            62 callgsubr
            -116 155 98 18 58 61 15 81 rlinecurve
            192 callsubr
            endchar
          </CharString>
          <CharString index="141">
            143 92 85 144 24 hvcurveto
            -81 hlineto
            -99 -17 -60 -58 -94 hhcurveto
            -104 -49 68 112 22 hvcurveto
            70 399 rlineto
            300 hlineto
            -20 -114 -18 -97 -42 -40 -89 8 rlinecurve
            -12 -74 147 -16 69 69 26 148 rlinecurve
            20 116 367 callsubr
            return
          </CharString>
          <CharString index="142">
            -63 37 callsubr
            return
          </CharString>
          <CharString index="143">
            -73 70 124 20 hvcurveto
            14 16 0 21 111 callgsubr
            18 -60 77 -111 hhcurveto
            -24 -23 -3 -6 -21 hvcurveto
            -740 -95 callsubr
            646 379 callsubr
            91 -1 49 68 87 hhcurveto
            68 31 -49 -61 -11 hvcurveto
            -117 -20 -108 -26 -103 hhcurveto
            -393 hlineto
            -123 -102 -65 -123 -21 hvcurveto
            -118 -21 78 -81 113 hhcurveto
            112 93 70 114 20 hvcurveto
            11 59 -16 45 -27 30 rrcurveto
            165 hlineto
            -151 -17 92 -105 175 hhcurveto
            return
          </CharString>
          <CharString index="144">
            249 callsubr
            15 72 44 callsubr
            return
          </CharString>
          <CharString index="145">
            rmoveto
            -94 -50 162 callsubr
            29 162 return
          </CharString>
          <CharString index="146">
            230 -196 rmoveto
            -104 callsubr
            354 141 callsubr
            return
          </CharString>
          <CharString index="147">
            -8 callsubr
            -225 rlineto
            -148 -26 return
          </CharString>
          <CharString index="148">
            83 hlineto
            362 callgsubr
            return
          </CharString>
          <CharString index="149">
            93 callgsubr
            -112 hhcurveto
            return
          </CharString>
          <CharString index="150">
            132 87 callgsubr
            85 hlineto
            137 24 -72 92 -120 hhcurveto
            -91 -66 -45 -60 -39 hvcurveto
            38 216 rlineto
            385 -95 callgsubr
            -943 hlineto
            return
          </CharString>
          <CharString index="151">
            71 callgsubr
            -63 -32 -43 -58 -13 -71 rrcurveto
            return
          </CharString>
          <CharString index="152">
            25 141 -85 95 -124 18 22 123 rcurveline
            324 -93 callsubr
            return
          </CharString>
          <CharString index="153">
            0 callgsubr
            -59 callgsubr
            return
          </CharString>
          <CharString index="154">
            hlineto
            -23 -129 -93 -12 -54 -67 -28 -64 rlinecurve
            return
          </CharString>
          <CharString index="155">
            -150 457 548 rmoveto
            -368 hlineto
            -13 -74 rlineto
            264 hlineto
            -337 -399 -13 -75 rlineto
            373 hlineto
            14 75 rlineto
            -269 hlineto
            336 399 rlineto
            return
          </CharString>
          <CharString index="156">
            -17 -97 53 -54 63 -15 rrcurveto
            -3 vlineto
            return
          </CharString>
          <CharString index="157">
            -73 -35 -52 -67 -14 -82 rrcurveto
            -124 -22 71 -101 148 hhcurveto
            131 87 81 85 27 hvcurveto
            endchar
          </CharString>
          <CharString index="158">
            hlineto
            -13 36 callgsubr
            return
          </CharString>
          <CharString index="159">
            -2 hlineto
            121 callgsubr
            return
          </CharString>
          <CharString index="160">
            -64 564 697 rmoveto
            -442 hlineto
            -15 -79 rlineto
            335 hlineto
            -434 -546 -13 -72 rlineto
            448 hlineto
            15 79 rlineto
            -341 hlineto
            434 546 rlineto
            return
          </CharString>
          <CharString index="161">
            162 callgsubr
            23 -36 88 -124 hhcurveto
            return
          </CharString>
          <CharString index="162">
            40 callsubr
            68 -100 144 hhcurveto
            return
          </CharString>
          <CharString index="163">
            -77 -66 -97 -16 hvcurveto
            124 callgsubr
            return
          </CharString>
          <CharString index="164">
            25 78 194 rmoveto
            -106 -8 54 -89 144 hhcurveto
            190 79 135 241 42 hvcurveto
            224 39 -32 138 -195 hhcurveto
            -157 -100 -100 -138 -24 hvcurveto
            -153 -27 84 -83 133 hhcurveto
            79 78 35 61 40 hvcurveto
            -212 -35 -70 -72 -105 hhcurveto
            -85 -39 44 75 -1 hvcurveto
            167 146 rmoveto
            -108 -39 68 93 16 hvcurveto
            96 17 70 64 94 hhcurveto
            104 43 -69 -98 -17 hvcurveto
            -97 -17 -76 -57 -87 hhcurveto
            endchar
          </CharString>
          <CharString index="165">
            rmoveto
            127 23 72 39 87 hhcurveto
            24 hlineto
            17 94 rlineto
            -87 -67 -44 -70 -43 hvcurveto
            18 104 237 callgsubr
            53 298 rlineto
            return
          </CharString>
          <CharString index="166">
            235 26 670 rmoveto
            682 hlineto
            -30 -169 rlineto
            -275 68 callsubr
            358 callsubr
            196 hlineto
            -19 -107 -415 -360 rlineto
            95 hlineto
            306 273 -41 -239 rlineto
            78 hlineto
            362 callgsubr
            -894 hlineto
            return
          </CharString>
          <CharString index="167">
            57 327 rlineto
            80 20 58 173 callsubr
            -61 -96 -17 hvcurveto
            return
          </CharString>
          <CharString index="168">
            139 callsubr
            70 hhcurveto
            90 250 callgsubr
            -83 return
          </CharString>
          <CharString index="169">
            39 54 83 callgsubr
            return
          </CharString>
          <CharString index="170">
            -23 callsubr
            -144 -26 57 -95 135 hhcurveto
            1 hlineto
            -247 -214 rlineto
            92 hlineto
            288 259 13 10 12 12 11 14 rlinecurve
            -50 -283 rlineto
            83 hlineto
            60 callsubr
            return
          </CharString>
          <CharString index="171">
            139 24 -71 69 -101 28 callsubr
            -144 -87 53 102 18 hvcurveto
            68 12 59 57 106 hhcurveto
            21 hlineto
            12 69 rlineto
            -23 hlineto
            -94 -29 43 77 13 hvcurveto
            18 102 rlineto
            664 330 callgsubr
          </CharString>
          <CharString index="172">
            -64 callsubr
            -113 -18 83 -80 149 hhcurveto
            endchar
          </CharString>
          <CharString index="173">
            rlineto
            41 callgsubr
            return
          </CharString>
          <CharString index="174">
            rmoveto
            69 hlineto
            26 11 23 18 36 hhcurveto
            37 19 -21 -31 -6 hvcurveto
            -33 -6 -28 -17 -37 hhcurveto
            -41 hlineto
            -9 -48 rlineto
            43 hlineto
            37 23 -19 -33 -6 hvcurveto
            -32 -5 -28 -20 -37 hhcurveto
            -34 -22 16 37 1 hvcurveto
            -71 hlineto
            -68 -8 46 -39 80 hhcurveto
            83 62 44 53 9 hvcurveto
            7 43 -24 28 -33 12 rrcurveto
            2 vlineto
            38 10 31 27 7 41 rrcurveto
            58 10 -49 45 -74 hhcurveto
            -79 -59 -41 -58 -16 hvcurveto
            endchar
          </CharString>
          <CharString index="175">
            hlineto
            -17 -97 rlineto
            -78 -13 -52 -52 -70 hhcurveto
            -69 -31 52 78 14 hvcurveto
            18 97 rlineto
            -85 hlineto
            -18 -99 rlineto
            -118 -21 62 -84 124 hhcurveto
            return
          </CharString>
          <CharString index="176">
            -33 callgsubr
            -9 -71 rmoveto
            151 131 95 151 27 hvcurveto
            39 callgsubr
            265 callgsubr
          </CharString>
          <CharString index="177">
            291 callsubr
            -43 50 72 12 118 callgsubr
            -69 return
          </CharString>
          <CharString index="178">
            21 121 -51 68 -80 15 22 124 rcurveline
            218 -95 callgsubr
            return
          </CharString>
          <CharString index="179">
            rmoveto
            352 hlineto
            12 68 rlineto
            -352 hlineto
            return
          </CharString>
          <CharString index="180" raw="1">
            def7240a 0b  
          </CharString>
          <CharString index="181">
            328 680 hmoveto
            84 5 callsubr
            -986 0 callgsubr
            288 hlineto
            -21 -121 rlineto
            -119 -20 -73 -31 -76 85 callsubr
            return
          </CharString>
          <CharString index="182">
            20 callsubr
            85 31 -69 -88 -15 hvcurveto
            -99 -18 -68 -71 -103 -41 callgsubr
            97 102 25 140 return
          </CharString>
          <CharString index="183">
            293 268 243 callsubr
            return
          </CharString>
          <CharString index="184">
            23 165 724 rmoveto
            -72 -408 rlineto
            86 hlineto
            57 34 59 38 74 hhcurveto
            105 43 -60 -103 -18 hvcurveto
            -99 -18 -63 -74 -110 hhcurveto
            -84 -52 45 76 -4 hvcurveto
            -88 hlineto
            -117 -3 73 -81 144 hhcurveto
            169 98 112 140 25 hvcurveto
            112 20 -35 127 -176 hhcurveto
            -71 -69 -32 -41 -37 hvcurveto
            40 228 rlineto
            352 hlineto
            13 80 rlineto
            endchar
          </CharString>
          <CharString index="185">
            128 callgsubr
            124 697 rlineto
            -91 hlineto
            return
          </CharString>
          <CharString index="186">
            rmoveto
            -95 -60 63 104 18 hvcurveto
            99 17 87 66 94 hhcurveto
            91 49 -59 -66 1 hvcurveto
            -2 -9 -1 -11 -1 -11 rrcurveto
            -3 -1 -4 -1 -3 vhcurveto
            -77 -18 -63 -89 -115 hhcurveto
            451 19 rmoveto
            -126 -63 70 109 20 hvcurveto
            3 1 2 3 vvcurveto
            129 5 81 61 22 134 19 101 rcurveline
            201 hlineto
            -54 -307 rlineto
            -108 -22 -98 -73 -110 hhcurveto
            return
          </CharString>
          <CharString index="187">
            hhcurveto
            -40 hlineto
            -12 -68 rlineto
            42 hlineto
            96 32 -14 -159 74 hvcurveto
            193 callsubr
            return
          </CharString>
          <CharString index="188">
            hlineto
            383 callgsubr
            -39 hlineto
            -164 -146 -88 -183 -32 hvcurveto
            return
          </CharString>
          <CharString index="189">
            124 callgsubr
            -8 -71 -43 -17 return
          </CharString>
          <CharString index="190">
            127 callsubr
            -6 -35 return
          </CharString>
          <CharString index="191">
            82 -10 callgsubr
            -1407 175 callgsubr
            15 17 -2 17 hhcurveto
            75 65 27 49 45 hvcurveto
            -74 24 67 -42 90 hhcurveto
            91 69 43 60 43 hvcurveto
            return
          </CharString>
          <CharString index="192">
            hhcurveto
            -35 170 callsubr
            return
          </CharString>
          <CharString index="193">
            -125 124 -20 rmoveto
            99 hlineto
            333 284 14 89 rlineto
            -544 317 rmoveto
            35 callgsubr
            -19 50 -75 109 hhcurveto
            118 57 79 96 17 hvcurveto
            37 217 rlineto
            194 -93 callsubr
            -599 hlineto
            return
          </CharString>
          <CharString index="194">
            rmoveto
            -128 -59 76 117 14 hvcurveto
            -15 1 rlineto
            2 0 3 2 vvcurveto
            2 hlineto
            137 89 74 130 24 hvcurveto
            15 83 rlineto
            296 callsubr
            -408 329 40 callgsubr
            endchar
          </CharString>
          <CharString index="195" raw="1">
            05d40a0b   
          </CharString>
          <CharString index="196">
            -98 callgsubr
            415 282 25 callsubr
            return
          </CharString>
          <CharString index="197">
            rmoveto
            -96 -60 138 callgsubr
            92 hhcurveto
            118 36 -87 -80 -15 hvcurveto
            -75 -13 -67 -90 -117 hhcurveto
            return
          </CharString>
          <CharString index="198">
            -76 callgsubr
            58 124 hhcurveto
            return
          </CharString>
          <CharString index="199">
            128 callgsubr
            353 callsubr
            -91 hlineto
            return
          </CharString>
          <CharString index="200">
            hhcurveto
            76 60 32 50 40 163 callgsubr
            return
          </CharString>
          <CharString index="201">
            hlineto
            -118 -670 rlineto
            return
          </CharString>
          <CharString index="202">
            -48 228 131 rmoveto
            337 callsubr
            17 95 rcurveline
            232 hlineto
            12 72 rlineto
            -313 hlineto
            -30 -165 149 callsubr
            -70 hhcurveto
            -68 -32 53 77 14 hvcurveto
            256 callsubr
            -84 hlineto
            -29 -164 18 callgsubr
            -201 539 rmoveto
            720 318 callgsubr
            return
          </CharString>
          <CharString index="203">
            83 -38 callsubr
            return
          </CharString>
          <CharString index="204">
            63 83 15 hvcurveto
            19 110 rlineto
            return
          </CharString>
          <CharString index="205">
            -60 rmoveto
            -104 callsubr
            return
          </CharString>
          <CharString index="206">
            rmoveto
            134 callsubr
            return
          </CharString>
          <CharString index="207">
            -30 1 8 rmoveto
            482 hlineto
            13 76 rlineto
            -344 hlineto
            148 105 221 153 31 175 rrcurveto
            131 23 -74 80 -136 hhcurveto
            -130 -112 -80 -154 -33 hvcurveto
            88 hlineto
            91 21 59 65 93 hhcurveto
            99 24 -61 -76 -13 hvcurveto
            -25 -143 -206 -144 -217 -153 rrcurveto
            endchar
          </CharString>
          <CharString index="208">
            rmoveto
            -9 callsubr
            93 50 152 26 hvcurveto
            23 131 rlineto
            822 342 callgsubr
            rlineto
            57 -25 -57 43 -94 hhcurveto
            -83 -74 -38 -65 -48 hvcurveto
            53 -26 -58 31 -80 hhcurveto
            -126 -98 -77 -127 -22 hvcurveto
            -14 -80 25 -60 51 -34 rrcurveto
            -51 -33 -58 -45 -82 hhcurveto
            endchar
          </CharString>
          <CharString index="209">
            -66 -114 hhcurveto
            -655 -243 -106 callgsubr
            return
          </CharString>
          <CharString index="210">
            54 callsubr
            -108 return
          </CharString>
          <CharString index="211">
            rmoveto
            -247 -26 callsubr
            16 91 rcurveline
            360 hlineto
            -17 -92 rlineto
            -115 -22 -70 -45 -110 hhcurveto
            222 -243 rmoveto
            -123 -69 76 106 25 215 callsubr
            126 6 77 66 23 128 19 106 rcurveline
            201 hlineto
            -59 -334 rlineto
            -97 -30 -89 -64 -102 hhcurveto
            return
          </CharString>
          <CharString index="212">
            hlineto
            -21 -116 rlineto
            -24 hlineto
            -169 -135 -84 -172 -31 hvcurveto
            return
          </CharString>
          <CharString index="213">
            136 78 91 128 18 hvcurveto
            return
          </CharString>
          <CharString index="214">
            47 callsubr
            52 callsubr
            return
          </CharString>
          <CharString index="215">
            rmoveto
            -254 hlineto
            190 356 rlineto
            endchar
          </CharString>
          <CharString index="216">
            102 367 697 rmoveto
            -217 hlineto
            -124 -697 rlineto
            217 hlineto
            229 164 131 216 38 hvcurveto
            216 39 -118 134 -228 hhcurveto
            -237 -627 rmoveto
            98 553 rlineto
            126 hlineto
            181 76 -106 -170 -30 hvcurveto
            -170 -30 -113 -107 -182 hhcurveto
            return
          </CharString>
          <CharString index="217">
            rmoveto
            -45 callsubr
            return
          </CharString>
          <CharString index="218">
            40 276 99 callsubr
            return
          </CharString>
          <CharString index="219">
            81 callsubr
            190 callsubr
            147 103 78 115 21 hvcurveto
            return
          </CharString>
          <CharString index="220">
            hlineto
            14 78 351 callgsubr
            -123 hhcurveto
            -108 -75 -70 -102 -17 hvcurveto
            -2 -13 -1 -15 -13 vvcurveto
            81 hlineto
            14 0 11 2 12 vhcurveto
            65 12 43 39 56 hhcurveto
            66 20 -50 -79 -14 hvcurveto
            -16 -91 rlineto
            -96 hlineto
            -109 -93 -57 -105 -20 hvcurveto
            -104 -17 64 -70 110 hhcurveto
            return
          </CharString>
          <CharString index="221">
            rmoveto
            19 104 rlineto
            201 hlineto
            -47 -264 rlineto
            -261 hlineto
            41 34 34 52 13 74 rrcurveto
            -16 -362 rmoveto
            153 callgsubr
            465 hlineto
            -59 -337 126 callgsubr
            return
          </CharString>
          <CharString index="222">
            239 callgsubr
            24 227 callsubr
            163 hlineto
            -166 -26 91 -107 159 hhcurveto
            105 76 46 59 46 hvcurveto
            -38 -217 rlineto
            return
          </CharString>
          <CharString index="223">
            -105 -19 64 -72 111 16 callgsubr
            return
          </CharString>
          <CharString index="224">
            80 -10 callgsubr
            return
          </CharString>
          <CharString index="225">
            115 105 155 27 hvcurveto
            return
          </CharString>
          <CharString index="226">
            hlineto
            -12 -21 -9 -24 -5 -27 rrcurveto
            90 callgsubr
            -34 callgsubr
            131 hlineto
            13 70 rlineto
            return
          </CharString>
          <CharString index="227">
            -15 -86 rlineto
            50 hlineto
            -4 -23 rlineto
            -36 -7 -16 -18 -34 hhcurveto
            -7 -42 rlineto
            65 42 35 78 14 hvcurveto
            4 26 2 31 -2 35 rrcurveto
            endchar
          </CharString>
          <CharString index="228">
            hlineto
            7 39 rlineto
            71 12 33 30 82 hhcurveto
            13 76 rlineto
            -141 -69 -55 286 callsubr
            -7 -39 rlineto
            -70 hlineto
            -13 -75 rlineto
            70 hlineto
            return
          </CharString>
          <CharString index="229">
            hlineto
            -12 -69 -20 -109 -64 -43 -95 -7 rlinecurve
            40 -23 -50 35 -102 hhcurveto
            return
          </CharString>
          <CharString index="230">
            64 96 hhcurveto
            35 hlineto
            13 66 rlineto
            -364 hlineto
            return
          </CharString>
          <CharString index="231">
            -106 -18 64 -71 110 hhcurveto
            endchar
          </CharString>
          <CharString index="232">
            rmoveto
            -129 -23 -98 -76 -101 hhcurveto
            -99 -74 75 255 callsubr
            127 23 100 76 99 hhcurveto
            101 72 -73 -129 -23 hvcurveto
            endchar
          </CharString>
          <CharString index="233">
            rmoveto
            -126 -64 189 callsubr
            return
          </CharString>
          <CharString index="234">
            rmoveto
            121 45 -94 -88 -16 hvcurveto
            return
          </CharString>
          <CharString index="235">
            304 263 rmoveto
            -98 -48 70 110 253 callgsubr
            -58 -29 -56 -42 -74 hhcurveto
            179 160 rmoveto
            -2 vlineto
            -264 249 rlineto
            308 hlineto
            -44 -247 rlineto
            -457 247 285 callgsubr
            return
          </CharString>
          <CharString index="236">
            132 callsubr
            endchar
          </CharString>
          <CharString index="237">
            -150 rlineto
            92 hlineto
            233 196 21 15 17 19 14 21 rlinecurve
            return
          </CharString>
          <CharString index="238">
            -51 -78 212 callgsubr
            return
          </CharString>
          <CharString index="239">
            -163 -29 96 -88 151 156 callgsubr
            return
          </CharString>
          <CharString index="240">
            160 callgsubr
            17 95 rcurveline
            return
          </CharString>
          <CharString index="241">
            -170 -30 94 -115 return
          </CharString>
          <CharString index="242">
            -18 callsubr
            endchar
          </CharString>
          <CharString index="243">
            -89 -62 40 82 14 hvcurveto
            63 12 51 50 104 hhcurveto
            52 hlineto
            13 68 rlineto
            -48 hlineto
            -97 -31 43 77 13 hvcurveto
            13 73 rlineto
            return
          </CharString>
          <CharString index="244">
            rmoveto
            185 callgsubr
            45 callsubr
            return
          </CharString>
          <CharString index="245">
            26 670 rmoveto
            426 hlineto
            -17 -99 rlineto
            -71 -12 -53 -53 -87 hhcurveto
            -36 hlineto
            -12 -74 rlineto
            46 hlineto
            110 27 -79 -70 -12 hvcurveto
            -85 -16 -66 -61 -88 hhcurveto
            -89 -57 64 85 15 hvcurveto
            -79 hlineto
            -132 -24 84 -92 140 hhcurveto
            return
          </CharString>
          <CharString index="246">
            -60 -39 169 callsubr
            return
          </CharString>
          <CharString index="247">
            109 hlineto
            21 112 rlineto
            -110 hlineto
            return
          </CharString>
          <CharString index="248">
            396 -70 callgsubr
            return
          </CharString>
          <CharString index="249">
            168 callsubr
            117 return
          </CharString>
          <CharString index="250">
            80 hlineto
            59 337 rlineto
            return
          </CharString>
          <CharString index="251" raw="1">
            06971d0b   
          </CharString>
          <CharString index="252">
            117 -68 callgsubr
            return
          </CharString>
          <CharString index="253">
            -26 30 rrcurveto
            256 -95 callgsubr
            -388 -31 callgsubr
            10 71 rmoveto
            -77 -43 50 72 12 118 callgsubr
            -69 return
          </CharString>
          <CharString index="254">
            hlineto
            -16 -91 rlineto
            return
          </CharString>
          <CharString index="255">
            rmoveto
            -26 hlineto
            83 -7 -57 58 -96 hhcurveto
            -89 -61 -44 -56 -35 304 callgsubr
            549 147 callsubr
            -102 return
          </CharString>
          <CharString index="256">
            rlineto
            -77 -14 -51 -53 return
          </CharString>
          <CharString index="257">
            366 callsubr
            15 hvcurveto
            63 11 51 50 104 hhcurveto
            53 hlineto
            12 68 rlineto
            -47 hlineto
            -97 -31 43 77 12 hvcurveto
            14 73 rlineto
            339 hlineto
            -55 -310 rlineto
            0 vlineto
            -110 -20 -100 -76 -110 hhcurveto
            return
          </CharString>
          <CharString index="258">
            24 359 hmoveto
            90 hlineto
            28 161 rlineto
            100 hlineto
            15 79 rlineto
            -100 hlineto
            83 476 rlineto
            -109 hlineto
            -437 -486 -12 -69 rlineto
            371 hlineto
            -251 79 rmoveto
            336 381 -67 -381 rlineto
            endchar
          </CharString>
          <CharString index="259">
            -51 callsubr
            endchar
          </CharString>
          <CharString index="260">
            hhcurveto
            91 70 43 61 42 hvcurveto
            -35 -200 rlineto
            82 hlineto
            145 callsubr
            return
          </CharString>
          <CharString index="261">
            hvcurveto
            10 58 -15 45 -26 30 rrcurveto
            return
          </CharString>
          <CharString index="262">
            -22 hvcurveto
            -114 -20 75 return
          </CharString>
          <CharString index="263">
            -83 119 -62 callsubr
            return
          </CharString>
          <CharString index="264">
            -233 241 rcurveline
            31 39 48 16 49 hhcurveto
            26 21 -3 -6 305 callgsubr
            rlineto
            8 -23 -27 3 -25 hhcurveto
            -139 -122 -90 -147 -26 hvcurveto
            -151 -27 104 -91 134 hhcurveto
            90 76 38 return
          </CharString>
          <CharString index="265">
            rmoveto
            -7 callsubr
            return
          </CharString>
          <CharString index="266">
            268 56 callgsubr
            return
          </CharString>
          <CharString index="267">
            -31 90 -111 165 -19 callgsubr
            return
          </CharString>
          <CharString index="268">
            -1 13 hhcurveto
            76 54 381 callsubr
            return
          </CharString>
          <CharString index="269">
            68 174 callgsubr
            return
          </CharString>
          <CharString index="270">
            51 76 hhcurveto
            73 return
          </CharString>
          <CharString index="271">
            180 rlineto
            144 -93 callsubr
            -662 hlineto
            179 -837 rmoveto
            -76 -1 -55 51 15 84 5 27 11 24 17 20 201 -151 rcurveline
            -31 -29 -41 -23 -48 hhcurveto
            41 262 rmoveto
            return
          </CharString>
          <CharString index="272">
            -77 hlineto
            -107 -18 -94 -73 -111 hhcurveto
            -122 -71 75 129 281 callsubr
            59 23 130 14 83 rcurveline
            278 -93 callsubr
            -652 hlineto
            endchar
          </CharString>
          <CharString index="273">
            -150 rlineto
            93 hlineto
            236 199 20 15 16 18 13 20 rlinecurve
            -161 -38 rmoveto
            -89 -55 60 102 18 hvcurveto
            97 17 81 60 84 hhcurveto
            109 29 -83 -74 -11 hvcurveto
            0 vlineto
            -2 -9 return
          </CharString>
          <CharString index="274">
            26 hlineto
            91 callsubr
            return
          </CharString>
          <CharString index="275">
            rmoveto
            -95 184 callsubr
            93 hhcurveto
            return
          </CharString>
          <CharString index="276">
            254 callsubr
            56 40 return
          </CharString>
          <CharString index="277">
            hlineto
            -28 -156 rlineto
            return
          </CharString>
          <CharString index="278">
            370 callsubr
            282 callgsubr
            return
          </CharString>
          <CharString index="279">
            rmoveto
            14 callgsubr
            return
          </CharString>
          <CharString index="280">
            80 104 hhcurveto
            83 54 return
          </CharString>
          <CharString index="281">
            hlineto
            -51 -287 rlineto
            -118 -22 67 -82 119 221 callsubr
            return
          </CharString>
          <CharString index="282">
            rmoveto
            -126 -64 79 125 22 239 callsubr
            2 324 callgsubr
            -54 -310 rlineto
            -107 -24 -93 -71 -109 hhcurveto
            return
          </CharString>
          <CharString index="283">
            -2 6 -1 5 -6 20 -1 22 4 20 rrcurveto
            65 11 39 35 52 hhcurveto
            46 25 -34 -48 -11 hvcurveto
            64 hlineto
            86 21 -38 61 -81 hhcurveto
            -94 -50 -68 -70 -14 hvcurveto
            190 -73 return
          </CharString>
          <CharString index="284">
            -95 callsubr
            167 hlineto
            -58 -34 -47 -61 -16 -93 rrcurveto
            -150 -26 97 -88 149 hhcurveto
            31 hlineto
            11 67 rlineto
            -20 hlineto
            -118 -58 64 108 18 hvcurveto
            132 return
          </CharString>
          <CharString index="285">
            161 callsubr
            -137 -17 2 callsubr
            endchar
          </CharString>
          <CharString index="286">
            rmoveto
            -124 -105 -45 -92 -60 hvcurveto
            -268 253 rlineto
            0 602 vlineto
            -21 -116 rlineto
            return
          </CharString>
          <CharString index="287" raw="1">
            9ade18f7 5df7be1d 0b 
          </CharString>
          <CharString index="288">
            18 callgsubr
            123 -1 return
          </CharString>
          <CharString index="289">
            hlineto
            -12 -15 callgsubr
            return
          </CharString>
          <CharString index="290">
            hmoveto
            119 10 callsubr
            return
          </CharString>
          <CharString index="291">
            -61 138 callgsubr
            return
          </CharString>
          <CharString index="292">
            6 callgsubr
            -73 hhcurveto
            return
          </CharString>
          <CharString index="293">
            23 227 callsubr
            return
          </CharString>
          <CharString index="294">
            -70 rlineto
            -78 callsubr
            return
          </CharString>
          <CharString index="295">
            119 hlineto
            -257 348 377 349 rlineto
            -114 hlineto
            -345 -322 57 322 rlineto
            -91 hlineto
            285 callsubr
            57 318 rlineto
            endchar
          </CharString>
          <CharString index="296">
            79 125 23 215 callsubr
            return
          </CharString>
          <CharString index="297">
            -167 -30 114 -112 171 hhcurveto
            return
          </CharString>
          <CharString index="298">
            -25 hvcurveto
            -143 return
          </CharString>
          <CharString index="299">
            -65 callgsubr
            -627 hlineto
            return
          </CharString>
          <CharString index="300">
            -133 77 callgsubr
            return
          </CharString>
          <CharString index="301">
            -144 -25 hvcurveto
            return
          </CharString>
          <CharString index="302">
            364 hlineto
            -35 -193 rlineto
            -96 hlineto
            -110 -94 -62 -113 -20 hvcurveto
            -104 -18 65 -70 109 hhcurveto
            115 77 76 130 23 hvcurveto
            13 75 rlineto
            return
          </CharString>
          <CharString index="303">
            -225 -2 -9 -1 -9 -1 -9 rlinecurve
            -244 -26 callsubr
            rrcurveto
            return
          </CharString>
          <CharString index="304">
            83 rcurveline
            201 hlineto
            -54 -310 rlineto
            -107 -24 return
          </CharString>
          <CharString index="305">
            -71 -103 hhcurveto
            -9 -11 1 1 return
          </CharString>
          <CharString index="306">
            430 302 263 332 callsubr
            -242 -1 -2 0 -2 -1 -2 rlinecurve
            -44 -23 -48 -50 -83 hhcurveto
            return
          </CharString>
          <CharString index="307">
            301 415 rmoveto
            -59 36 -33 50 12 69 rrcurveto
            57 9 55 52 67 hhcurveto
            74 35 -55 -58 -11 hvcurveto
            -12 -69 -49 -43 -63 -42 -9 -6 rcurveline
            return
          </CharString>
          <CharString index="308">
            348 209 callgsubr
            return
          </CharString>
          <CharString index="309">
            82 22 callgsubr
            return
          </CharString>
          <CharString index="310">
            -63 callsubr
            -131 hlineto
            return
          </CharString>
          <CharString index="311">
            -120 -22 -75 -40 return
          </CharString>
          <CharString index="312">
            118 callsubr
            -79 callgsubr
            return
          </CharString>
          <CharString index="313">
            94 rmoveto
            -16 -92 rlineto
            53 hlineto
            -3 -19 rlineto
            -41 -7 -20 -21 -35 hhcurveto
            -8 -46 rlineto
            71 47 39 87 15 hvcurveto
            5 27 1 31 -2 35 rrcurveto
            return
          </CharString>
          <CharString index="314">
            15 86 rlineto
            -49 hlineto
            4 23 rlineto
            35 6 17 19 34 hhcurveto
            7 42 rlineto
            -66 -41 -35 -78 -14 hvcurveto
            -5 -26 -2 -31 3 -35 rrcurveto
            endchar
          </CharString>
          <CharString index="315">
            rmoveto
            -64 callgsubr
            return
          </CharString>
          <CharString index="316">
            83 -117 hhcurveto
            -115 -86 -72 -99 -17 hvcurveto
            -17 -90 42 -70 83 -56 -238 -161 rcurveline
            -1 -11 rlineto
            96 hlineto
            200 137 return
          </CharString>
          <CharString index="317">
            -48 -83 hhcurveto
            -93 -42 55 74 5 hvcurveto
            -75 hlineto
            -45 -256 rlineto
            79 hlineto
            return
          </CharString>
          <CharString index="318">
            187 callgsubr
            202 hlineto
            return
          </CharString>
          <CharString index="319">
            60 23 129 return
          </CharString>
          <CharString index="320">
            rrcurveto
            130 callgsubr
            return
          </CharString>
          <CharString index="321">
            rmoveto
            -50 callgsubr
            return
          </CharString>
          <CharString index="322">
            hvcurveto
            2 1 3 2 vvcurveto
            return
          </CharString>
          <CharString index="323">
            83 hlineto
            119 670 rlineto
            131 274 callgsubr
            return
          </CharString>
          <CharString index="324">
            rmoveto
            -72 -1 -47 48 12 75 11 69 62 48 65 5 70 6 52 25 34 39 -35 -198 rcurveline
            -58 -16 -56 -58 -80 hhcurveto
            return
          </CharString>
          <CharString index="325">
            10 callgsubr
            60 callsubr
            return
          </CharString>
          <CharString index="326">
            233 108 rmoveto
            -77 -43 51 343 callsubr
            -72 -13 hvcurveto
            -68 -13 -60 -55 -73 hhcurveto
            return
          </CharString>
          <CharString index="327">
            hlineto
            -22 -121 rlineto
            return
          </CharString>
          <CharString index="328">
            hhcurveto
            122 75 85 115 20 hvcurveto
            51 287 rlineto
            195 94 callsubr
            -34 callgsubr
            return
          </CharString>
          <CharString index="329">
            204 197 rmoveto
            -62 -38 42 64 12 hvcurveto
            65 12 55 41 68 hhcurveto
            95 hlineto
            -14 -79 rlineto
            -83 -15 -46 -50 -67 hhcurveto
            return
          </CharString>
          <CharString index="330">
            rmoveto
            117 hlineto
            -36 -212 rlineto
            -114 -22 62 -86 122 hhcurveto
            124 74 85 115 21 hvcurveto
            37 212 rlineto
            return
          </CharString>
          <CharString index="331">
            242 callgsubr
            endchar
          </CharString>
          <CharString index="332">
            -160 316 callgsubr
            rlineto
            endchar
          </CharString>
          <CharString index="333">
            rrcurveto
            124 callsubr
          </CharString>
          <CharString index="334">
            hvcurveto
            14 77 rlineto
            return
          </CharString>
          <CharString index="335">
            190 callgsubr
            71 callsubr
            return
          </CharString>
          <CharString index="336">
            rrcurveto
            245 callgsubr
            return
          </CharString>
          <CharString index="337">
            rmoveto
            -98 -62 63 105 18 hvcurveto
            103 18 88 63 94 hhcurveto
            116 37 -87 -80 -15 hvcurveto
            -77 -13 -67 -90 -116 hhcurveto
            return
          </CharString>
          <CharString index="338">
            rmoveto
            34 32 27 35 6 hvcurveto
            35 6 -22 27 -34 316 callsubr
            -35 -6 22 -27 34 hhcurveto
            endchar
          </CharString>
          <CharString index="339">
            hhcurveto
            -40 hlineto
            -12 -68 rlineto
            41 336 callgsubr
            return
          </CharString>
          <CharString index="340">
            128 hlineto
            -69 -397 rlineto
            -151 -27 69 -103 165 hhcurveto
            return
          </CharString>
          <CharString index="341">
            hlineto
            -11 -69 rlineto
            204 callsubr
            -111 hhcurveto
            -15 hlineto
            -4 return
          </CharString>
          <CharString index="342">
            136 227 rlineto
            -102 hlineto
            -99 -227 rlineto
            return
          </CharString>
          <CharString index="343">
            19 154 callsubr
            return
          </CharString>
          <CharString index="344">
            rlineto
            -82 322 callsubr
            return
          </CharString>
          <CharString index="345">
            -22 271 callsubr
            return
          </CharString>
          <CharString index="346">
            hvcurveto
            1 2 0 3 1 return
          </CharString>
          <CharString index="347">
            hlineto
            -75 -426 rlineto
            return
          </CharString>
          <CharString index="348">
            12 callgsubr
            209 hlineto
            -118 -670 66 callsubr
            return
          </CharString>
          <CharString index="349">
            -27 -32 -233 240 rcurveline
            29 38 47 16 48 hhcurveto
            -61 -359 rmoveto
            -100 -73 65 215 callgsubr
            return
          </CharString>
          <CharString index="350">
            56 callgsubr
            -251 -1 1 rlineto
            -82 -14 -59 -70 -90 hhcurveto
            return
          </CharString>
          <CharString index="351">
            172 159 callgsubr
            return
          </CharString>
          <CharString index="352">
            -35 -6 22 -27 34 hhcurveto
            35 32 27 35 6 hvcurveto
            35 6 -22 27 -35 316 callsubr
            endchar
          </CharString>
          <CharString index="353">
            241 callgsubr
            72 hlineto
            12 69 rlineto
            48 hlineto
            8 47 rlineto
            -229 hmoveto
            142 175 -31 -175 rlineto
            return
          </CharString>
          <CharString index="354">
            rmoveto
            -86 hlineto
            -78 -14 -60 -47 -82 hhcurveto
            -81 -43 50 80 14 hvcurveto
            121 22 100 22 115 hhcurveto
            29 hlineto
            return
          </CharString>
          <CharString index="355">
            182 callsubr
            83 hlineto
            return
          </CharString>
          <CharString index="356">
            50 93 16 hvcurveto
            84 return
          </CharString>
          <CharString index="357">
            rmoveto
            -68 -33 51 71 12 hvcurveto
            39 219 rlineto
            218 hlineto
            -39 -219 rlineto
            -71 -12 -49 -51 -68 hhcurveto
            return
          </CharString>
          <CharString index="358">
            305 callsubr
            -13 38 -26 26 149 -1 rcurveline
            return
          </CharString>
          <CharString index="359">
            328 rmoveto
            399 hlineto
            14 77 rlineto
            -399 hlineto
            endchar
          </CharString>
          <CharString index="360">
            -39 -34 callsubr
            return
          </CharString>
          <CharString index="361">
            24 callgsubr
            12 return
          </CharString>
          <CharString index="362">
            129 23 hvcurveto
            return
          </CharString>
          <CharString index="363">
            29 165 rlineto
            return
          </CharString>
          <CharString index="364">
            -72 33 71 -42 102 hhcurveto
            100 74 335 callgsubr
            85 hlineto
            145 callsubr
            return
          </CharString>
          <CharString index="365">
            12 65 rlineto
            -5 -17 -29 -5 -30 hhcurveto
            -62 -54 39 72 13 hvcurveto
            59 9 49 40 75 hhcurveto
            28 hlineto
            return
          </CharString>
          <CharString index="366">
            hvcurveto
            62 11 51 50 104 hhcurveto
            53 hlineto
            12 68 rlineto
            -47 hlineto
            -97 -32 43 77 13 hvcurveto
            13 73 rlineto
            return
          </CharString>
          <CharString index="367">
            rlinecurve
            92 callgsubr
            return
          </CharString>
          <CharString index="368">
            104 84 61 79 38 hvcurveto
            3 hlineto
            return
          </CharString>
          <CharString index="369">
            83 hlineto
            145 callsubr
            return
          </CharString>
          <CharString index="370">
            hlineto
            14 81 rlineto
            return
          </CharString>
          <CharString index="371">
            -101 hhcurveto
            -84 279 callgsubr
            return
          </CharString>
          <CharString index="372">
            hlineto
            -110 -95 return
          </CharString>
          <CharString index="373">
            -143 -72 callsubr
            -35 -201 rlineto
            80 hlineto
            59 return
          </CharString>
          <CharString index="374">
            -285 83 hmoveto
            92 hlineto
            125 709 rlineto
            -188 hlineto
            -15 -83 rlineto
            96 hlineto
            endchar
          </CharString>
          <CharString index="375" raw="1">
            1f65f7bf 0a0b  
          </CharString>
          <CharString index="376">
            303 callsubr
            132 callgsubr
            return
          </CharString>
          <CharString index="377">
            hhcurveto
            -42 hlineto
            -9 -55 rlineto
            return
          </CharString>
          <CharString index="378">
            -117 383 callsubr
            return
          </CharString>
          <CharString index="379">
            199 rlineto
            -83 hlineto
            return
          </CharString>
          <CharString index="380">
            -108 -28 callsubr
            return
          </CharString>
          <CharString index="381">
            309 rmoveto
            -17 callsubr
            return
          </CharString>
          <CharString index="382">
            127 175 -65 175 rlineto
            -89 hlineto
            68 -175 -130 -175 rlineto
            endchar
          </CharString>
          <CharString index="383">
            66 90 hhcurveto
            87 22 -76 -106 -14 hvcurveto
            -2 -18 rlineto
            69 hlineto
            4 18 rlineto
            108 return
          </CharString>
          <CharString index="384">
            rmoveto
            333 callgsubr
            91 -70 124 hhcurveto
            return
          </CharString>
          <CharString index="385">
            -28 callsubr
            102 return
          </CharString>
          <CharString index="386">
            rmoveto
            117 callgsubr
            return
          </CharString>
          <CharString index="387">
            hvcurveto
            -132 345 callsubr
            83 hlineto
            endchar
          </CharString>
          <CharString index="388">
            23 -29 callgsubr
            81 return
          </CharString>
          <CharString index="389">
            60 376 callgsubr
            return
          </CharString>
          <CharString index="390">
            292 callsubr
            70 return
          </CharString>
          <CharString index="391">
            -49 rmoveto
            -14 -82 rlineto
            47 hlineto
            return
          </CharString>
          <CharString index="392">
            -124 -697 rlineto
            91 hlineto
            return
          </CharString>
          <CharString index="393">
            -122 -22 hvcurveto
            return
          </CharString>
          <CharString index="394">
            hhcurveto
            -143 -112 -90 -138 -24 hvcurveto
            -145 -25 92 -94 141 hhcurveto
            return
          </CharString>
          <CharString index="395">
            54 callsubr
            -23 263 callgsubr
            return
          </CharString>
          <CharString index="396">
            292 callsubr
            71 114 20 hvcurveto
            10 58 -15 46 -27 29 rrcurveto
            return
          </CharString>
          <CharString index="397">
            45 58 46 322 callgsubr
            return
          </CharString>
          <CharString index="398">
            236 188 rmoveto
            -77 return
          </CharString>
          <CharString index="399">
            119 hhcurveto
            109 93 return
          </CharString>
          <CharString index="400">
            146 26 hvcurveto
            return
          </CharString>
          <CharString index="401">
            73 120 43 hvcurveto
            -5 19 21 -3 22 hhcurveto
            72 64 31 48 36 hvcurveto
            return
          </CharString>
          <CharString index="402">
            114 hhcurveto
            78 68 -12 -75 -14 hvcurveto
            -52 -9 -49 -33 -79 hhcurveto
            -108 return
          </CharString>
          <CharString index="403">
            201 298 callgsubr
            -95 -77 -113 hhcurveto
            return
          </CharString>
          <CharString index="404">
            -129 -28 -170 rmoveto
            90 hlineto
            470 1112 rlineto
            -91 hlineto
            endchar
          </CharString>
          <CharString index="405">
            77 -113 hhcurveto
            -24 -22 -3 -6 -21 hvcurveto
            return
          </CharString>
          <CharString index="406" raw="1">
            fb6b0569 1d0b  
          </CharString>
          <CharString index="407">
            183 hlineto
            -63 -32 -43 -58 -13 -71 rrcurveto
            return
          </CharString>
          <CharString index="408">
            rmoveto
            -59 -40 40 66 12 hvcurveto
            66 12 55 return
          </CharString>
          <CharString index="409">
            407 rmoveto
            -22 -122 -91 -10 -83 -46 return
          </CharString>
          <CharString index="410">
            hlineto
            -68 -385 rlineto
            return
          </CharString>
          <CharString index="411">
            -2 hlineto
            69 -5 return
          </CharString>
          <CharString index="412">
            rmoveto
            72 callgsubr
            return
          </CharString>
          <CharString index="413">
            23 -71 92 -121 hhcurveto
            -90 -66 -45 -59 -39 370 callgsubr
            return
          </CharString>
          <CharString index="414">
            301 268 rmoveto
            -100 253 callsubr
            return
          </CharString>
          <CharString index="415">
            24 -75 95 -121 hhcurveto
            -88 -62 -45 -59 -37 hvcurveto
            37 215 rlineto
            return
          </CharString>
          <CharString index="416">
            hlineto
            -13 -75 rlineto
            70 hlineto
            endchar
          </CharString>
          <CharString index="417">
            761 340 callsubr
            253 hlineto
            -25 -139 rlineto
            16 return
          </CharString>
          <CharString index="418">
            61 35 51 38 hvcurveto
            -26 -146 rlineto
            return
          </CharString>
          <CharString index="419">
            rrcurveto
            333 callsubr
            return
          </CharString>
          <CharString index="420">
            -605 -172 737 rmoveto
            72 hlineto
            return
          </CharString>
          <CharString index="421">
            70 rlineto
            -216 hlineto
            -50 -286 rlineto
            return
          </CharString>
          <CharString index="422">
            hlineto
            -29 -165 rlineto
            -77 -14 return
          </CharString>
          <CharString index="423">
            hhcurveto
            -34 -32 -27 -35 -6 hvcurveto
            return
          </CharString>
          <CharString index="424">
            -18 -51 45 -92 hhcurveto
            -126 return
          </CharString>
          <CharString index="425">
            282 rmoveto
            -183 hlineto
            return
          </CharString>
          <CharString index="426">
            hhcurveto
            112 86 64 79 return
          </CharString>
          <CharString index="427">
            hlineto
            12 67 rlineto
            -21 hlineto
            return
          </CharString>
          <CharString index="428">
            hlineto
            57 323 rlineto
            return
          </CharString>
          <CharString index="429">
            -15 -46 -49 -66 hhcurveto
            return
          </CharString>
          <CharString index="430">
            rmoveto
            82 -10 callgsubr
            return
          </CharString>
          <CharString index="431">
            rlineto
            84 22 callgsubr
            return
          </CharString>
          <CharString index="432">
            282 callgsubr
            10 58 -15 return
          </CharString>
          <CharString index="433">
            214 callgsubr
            -17 -20 return
          </CharString>
          <CharString index="434">
            52 84 326 rmoveto
            510 hlineto
            15 80 rlineto
            -510 hlineto
            return
          </CharString>
          <CharString index="435">
            hlineto
            20 callgsubr
            60 317 callsubr
            -104 return
          </CharString>
          <CharString index="436">
            352 callsubr
            -77 hhcurveto
            -81 -31 58 82 15 hvcurveto
            return
          </CharString>
          <CharString index="437">
            -22 -21 -3 -6 return
          </CharString>
          <CharString index="438">
            hlineto
            -50 -286 rlineto
            -164 162 callgsubr
            return
          </CharString>
          <CharString index="439">
            38 callsubr
            251 return
          </CharString>
          <CharString index="440">
            -151 -26 102 -104 156 hhcurveto
            return
          </CharString>
          <CharString index="441">
            rlineto
            134 hlineto
            172 86 96 return
          </CharString>
          <CharString index="442">
            -14 -19 -3 hvcurveto
            -19 -3 11 -14 return
          </CharString>
          <CharString index="443">
            74 134 23 hvcurveto
            13 76 rlineto
            return
          </CharString>
          <CharString index="444">
            123 -1 84 227 callgsubr
            return
          </CharString>
          <CharString index="445">
            58 82 14 hvcurveto
            26 146 rlineto
            return
          </CharString>
          <CharString index="446">
            285 callgsubr
            rlineto
            return
          </CharString>
          <CharString index="447">
            596 670 rmoveto
            return
          </CharString>
          <CharString index="448">
            hlineto
            -32 -40 -18 -53 return
          </CharString>
          <CharString index="449">
            66 10 46 39 54 hhcurveto
            65 18 -51 -78 -14 hvcurveto
            return
          </CharString>
          <CharString index="450">
            71 13 hvcurveto
            74 14 323 callgsubr
            43 -51 return
          </CharString>
          <CharString index="451">
            rmoveto
            -40 callsubr
            return
          </CharString>
          <CharString index="452">
            0 callgsubr
            132 hlineto
            -117 -670 rlineto
            return
          </CharString>
          <CharString index="453">
            57 75 90 hhcurveto
            85 31 -69 -88 -15 hvcurveto
            -99 -17 return
          </CharString>
          <CharString index="454">
            rrcurveto
            363 callsubr
            return
          </CharString>
          <CharString index="455">
            -25 -31 -6 hvcurveto
            -31 -5 20 -25 32 hhcurveto
            endchar
          </CharString>
          <CharString index="456">
            hhcurveto
            163 118 callsubr
            endchar
          </CharString>
          <CharString index="457">
            0 3 1 3 126 return
          </CharString>
          <CharString index="458">
            hlineto
            -15 -28 -12 -33 -6 return
          </CharString>
          <CharString index="459">
            -81 hlineto
            -81 -12 -45 -60 return
          </CharString>
          <CharString index="460">
            97 548 rlineto
            return
          </CharString>
          <CharString index="461">
            35 -115 hhcurveto
            -260 hlineto
            22 120 rlineto
            return
          </CharString>
          <CharString index="462">
            164 callgsubr
            62 -93 131 hhcurveto
            128 return
          </CharString>
          <CharString index="463">
            -49 rmoveto
            -15 -82 rlineto
            48 hlineto
            -3 -18 rlineto
            -36 return
          </CharString>
          <CharString index="464">
            hhcurveto
            103 76 290 callsubr
            return
          </CharString>
          <CharString index="465">
            118 81 84 118 21 hvcurveto
            5 31 rlineto
            return
          </CharString>
          <CharString index="466">
            40 62 hhcurveto
            60 27 -41 -52 -8 hvcurveto
            59 hlineto
            return
          </CharString>
          <CharString index="467">
            339 callsubr
            -152 -27 return
          </CharString>
          <CharString index="468">
            hlineto
            -21 -117 rlineto
            -130 hlineto
            -94 -75 -42 return
          </CharString>
          <CharString index="469">
            rmoveto
            -88 -62 -43 -57 -38 370 callgsubr
            return
          </CharString>
          <CharString index="470">
            -105 -18 63 -72 111 hhcurveto
            116 76 74 return
          </CharString>
          <CharString index="471">
            12 -131 270 callsubr
            44 hlineto
            return
          </CharString>
          <CharString index="472">
            -77 -13 hvcurveto
            -1 -9 -1 -11 -9 vvcurveto
            58 hlineto
            return
          </CharString>
          <CharString index="473">
            174 rmoveto
            -89 -62 40 82 return
          </CharString>
          <CharString index="474">
            rlineto
            112 -95 callgsubr
            return
          </CharString>
          <CharString index="475">
            15 rlineto
            175 31 -134 return
          </CharString>
          <CharString index="476">
            43 -52 -71 -13 hvcurveto
            return
          </CharString>
          <CharString index="477">
            -114 -19 74 -83 return
          </CharString>
          <CharString index="478">
            77 -88 122 hhcurveto
            return
          </CharString>
          <CharString index="479">
            38 218 rlineto
            return
          </CharString>
          <CharString index="480">
            -52 185 callsubr
            return
          </CharString>
          <CharString index="481">
            -42 rlineto
            64 42 35 80 15 hvcurveto
            4 25 return
          </CharString>
          <CharString index="482">
            rlineto
            73 hlineto
            101 569 rlineto
            -72 hlineto
            -85 return
          </CharString>
          <CharString index="483">
            56 63 callgsubr
            -80 rlineto
            -83 return
          </CharString>
          <CharString index="484">
            -36 -209 rlineto
            60 -24 -57 48 -93 hhcurveto
            return
          </CharString>
          <CharString index="485">
            hvcurveto
            -3 12 12 -1 13 hhcurveto
            76 55 36 return
          </CharString>
          <CharString index="486">
            341 callsubr
            -1 -59 rrcurveto
            76 hlineto
            return
          </CharString>
          <CharString index="487">
            hhcurveto
            121 89 69 61 34 hvcurveto
            endchar
          </CharString>
          <CharString index="488">
            36 46 34 hvcurveto
            return
          </CharString>
          <CharString index="489">
            hlineto
            -24 -135 return
          </CharString>
          <CharString index="490">
            rlineto
            -129 hlineto
            return
          </CharString>
        <CharString name=".notdef">
          -105 0 vmoveto
          500 700 -500 hlineto
          250 -305 rmoveto
          -170 255 rlineto
          340 hlineto
          -140 -300 rmoveto
          170 255 rlineto
          -510 vlineto
          -370 -45 rmoveto
          170 255 170 -255 rlineto
          -370 555 rmoveto
          170 -255 -170 -255 rlineto
          endchar
        </CharString>
        <CharString name="A">
          -22 callsubr
          -13 71 108 callsubr
        </CharString>
        <CharString name="AE">
          295 525 629 110 callgsubr
        </CharString>
        <CharString name="Aacute">
          -22 callsubr
          -154 647 -39 callsubr
          -95 -701 108 callsubr
        </CharString>
        <CharString name="Abreve">
          -22 callsubr
          120 730 -82 callsubr
          -133 -659 108 callsubr
        </CharString>
        <CharString name="Acircumflex">
          -22 callsubr
          103 664 -30 callgsubr
          -103 -521 108 callsubr
        </CharString>
        <CharString name="Adieresis">
          -22 callsubr
          -125 612 -92 callgsubr
          -51 -541 108 callsubr
        </CharString>
        <CharString name="Agrave">
          -22 callsubr
          -145 693 15 callsubr
          118 -701 108 callsubr
        </CharString>
        <CharString name="Amacron">
          -22 callsubr
          -216 631 72 callsubr
          191 -628 108 callsubr
        </CharString>
        <CharString name="Aogonek">
          69 356 693 rmoveto
          -374 -693 rlineto
          96 hlineto
          83 155 rlineto
          305 hlineto
          25 -136 -72 -37 -30 -45 -8 -42 rlinecurve
          -74 -13 59 -27 60 hhcurveto
          26 29 6 8 24 hvcurveto
          11 60 rlineto
          -8 -25 -24 -5 -20 hhcurveto
          -35 -20 17 31 5 hvcurveto
          5 25 19 23 49 22 59 27 rcurveline
          -129 693 rlineto
          -8 -467 108 callsubr
        </CharString>
        <CharString name="Aring">
          -22 callsubr
          28 703 rmoveto
          -34 -6 -29 -23 -32 hhcurveto
          -30 -21 23 34 6 hvcurveto
          34 6 28 22 31 hhcurveto
          32 21 -22 -34 -6 hvcurveto
          -161 -1 rmoveto
          -65 -11 40 -40 57 hhcurveto
          58 53 40 65 12 hvcurveto
          65 11 -38 40 -59 hhcurveto
          -57 -54 -40 -65 -12 hvcurveto
          120 -631 108 callsubr
        </CharString>
        <CharString name="Atilde">
          -22 callsubr
          -193 597 -91 callsubr
          180 -526 108 callsubr
        </CharString>
        <CharString name="B">
          8 456 196 rmoveto
          -77 -13 -62 -47 -90 hhcurveto
          -161 hlineto
          44 250 rlineto
          158 hlineto
          88 51 -49 -77 -15 hvcurveto
          38 313 rmoveto
          -71 -12 -57 -44 -85 hhcurveto
          -153 hlineto
          41 231 rlineto
          151 hlineto
          88 40 -45 -71 -13 hvcurveto
          52 -322 rmoveto
          15 86 -49 73 -74 13 72 22 63 51 15 88 rrcurveto
          97 18 -59 80 -147 hhcurveto
          -250 hlineto
          -124 -697 rlineto
          260 hlineto
          144 98 82 105 18 hvcurveto
          endchar
        </CharString>
        <CharString name="C">
          -37 callgsubr
          endchar
        </CharString>
        <CharString name="CR">
          -307 endchar
        </CharString>
        <CharString name="Cacute">
          -37 callgsubr
          313 453 -39 callsubr
          endchar
        </CharString>
        <CharString name="Ccaron">
          -37 callgsubr
          432 467 -19 callsubr
        </CharString>
        <CharString name="Ccedilla">
          167 54 349 rmoveto
          -35 -200 114 -142 181 -12 -20 -109 rcurveline
          4 callgsubr
          9 53 rcurveline
          136 11 118 74 70 123 rrcurveto
          -109 hlineto
          -80 -52 -83 -47 -102 hhcurveto
          -145 -90 106 167 29 hvcurveto
          168 30 127 106 146 hhcurveto
          102 66 -47 -81 24 hvcurveto
          109 hlineto
          135 -29 -107 76 -151 hhcurveto
          -194 -179 -148 -209 -37 hvcurveto
          endchar
        </CharString>
        <CharString name="Cdotaccent">
          -37 callgsubr
          422 412 -44 callgsubr
        </CharString>
        <CharString name="D">
          109 callsubr
          endchar
        </CharString>
        <CharString name="Dcaron">
          109 callsubr
          189 746 -19 callsubr
        </CharString>
        <CharString name="Dcroat">
          64 callgsubr
        </CharString>
        <CharString name="E">
          -74 callsubr
          endchar
        </CharString>
        <CharString name="Eacute">
          -74 callsubr
          -281 176 -39 callsubr
          endchar
        </CharString>
        <CharString name="Ebreve">
          -74 callsubr
          -8 259 -82 callsubr
          endchar
        </CharString>
        <CharString name="Ecaron">
          -74 callsubr
          -162 190 -19 callsubr
        </CharString>
        <CharString name="Ecircumflex">
          -74 callsubr
          -24 193 -30 callgsubr
          endchar
        </CharString>
        <CharString name="Edieresis">
          -74 callsubr
          -252 141 -92 callgsubr
          endchar
        </CharString>
        <CharString name="Edotaccent">
          -74 callsubr
          -172 135 -44 callgsubr
        </CharString>
        <CharString name="Egrave">
          -74 callsubr
          -272 222 15 callsubr
          endchar
        </CharString>
        <CharString name="Emacron">
          -74 callsubr
          -344 160 72 callsubr
          endchar
        </CharString>
        <CharString name="Eogonek">
          -92 524 698 rmoveto
          -374 hlineto
          -124 -698 rlineto
          254 hlineto
          -55 -33 -26 -35 -6 -38 rrcurveto
          54 callgsubr
          13 72 rlineto
          -284 hlineto
          44 245 rlineto
          253 -95 callgsubr
          -253 hlineto
          42 239 rlineto
          283 hlineto
          endchar
        </CharString>
        <CharString name="Eth">
          64 callgsubr
        </CharString>
        <CharString name="Euro">
          206 116 349 rmoveto
          -3 -18 -2 -17 -1 -17 rrcurveto
          -84 hlineto
          -11 -64 rlineto
          98 hlineto
          -145 19 113 -94 157 hhcurveto
          150 133 75 134 76 hvcurveto
          -109 hlineto
          -80 -52 -82 -47 -102 hhcurveto
          -108 -78 58 99 -20 hvcurveto
          234 hlineto
          12 64 rlineto
          -252 hlineto
          1 17 2 17 3 18 3 17 4 16 5 16 rrcurveto
          252 hlineto
          10 63 rlineto
          -235 hlineto
          102 55 99 60 110 hhcurveto
          102 65 -47 -81 24 hvcurveto
          108 hlineto
          135 -28 -107 76 -150 hhcurveto
          -158 -147 -97 -148 -70 hvcurveto
          -97 hlineto
          -11 -63 rlineto
          84 hlineto
          -5 -16 -4 -16 -3 -17 rrcurveto
          endchar
        </CharString>
        <CharString name="F">
          -101 256 callgsubr
          56 316 rlineto
          246 hlineto
          13 71 rlineto
          -246 hlineto
          42 239 rlineto
          302 hlineto
          13 71 rlineto
          -393 hlineto
          endchar
        </CharString>
        <CharString name="G">
          173 54 349 -49 callgsubr
          endchar
        </CharString>
        <CharString name="Gbreve">
          173 54 349 -49 callgsubr
          586 536 -82 callsubr
          endchar
        </CharString>
        <CharString name="Gdotaccent">
          173 54 349 -49 callgsubr
          422 412 -44 callgsubr
        </CharString>
        <CharString name="H">
          86 472 hmoveto
          91 hlineto
          123 697 rlineto
          -91 hlineto
          -54 -308 rlineto
          -355 hlineto
          55 308 rlineto
          -91 hlineto
          285 callsubr
          57 318 rlineto
          354 hlineto
          endchar
        </CharString>
        <CharString name="I">
          78 callsubr
          endchar
        </CharString>
        <CharString name="Iacute">
          78 callsubr
          -52 105 -39 callsubr
          endchar
        </CharString>
        <CharString name="Icircumflex">
          78 callsubr
          205 122 -30 callgsubr
          endchar
        </CharString>
        <CharString name="Idieresis">
          78 callsubr
          -23 70 -92 callgsubr
          endchar
        </CharString>
        <CharString name="Idotaccent">
          78 callsubr
          57 64 -44 callgsubr
        </CharString>
        <CharString name="Igrave">
          78 callsubr
          -43 151 15 callsubr
          endchar
        </CharString>
        <CharString name="Imacron">
          78 callsubr
          -115 89 72 callsubr
          endchar
        </CharString>
        <CharString name="Iogonek">
          -359 94 -191 172 callsubr
          57 26 rcurveline
          1 1 1 hlineto
          -1 2 124 694 rlineto
          -91 hlineto
          -121 -679 142 callgsubr
          endchar
        </CharString>
        <CharString name="Itilde">
          78 callsubr
          -91 55 -91 callsubr
          endchar
        </CharString>
        <CharString name="J">
          -75 318 182 rmoveto
          -58 -11 -38 -50 -71 hhcurveto
          -73 -21 51 64 11 hvcurveto
          -91 hlineto
          -122 -22 65 -74 116 hhcurveto
          115 90 73 116 21 hvcurveto
          91 515 rlineto
          -92 hlineto
          endchar
        </CharString>
        <CharString name="K">
          -6 404 hmoveto
          188 callsubr
        </CharString>
        <CharString name="L">
          -173 150 697 rmoveto
          107 callgsubr
          endchar
        </CharString>
        <CharString name="Lacute">
          -173 150 697 rmoveto
          107 callgsubr
          -49 105 -39 callsubr
          endchar
        </CharString>
        <CharString name="Lcaron">
          -159 354 697 rmoveto
          -16 -85 rlineto
          50 hlineto
          -5 -23 rlineto
          -36 -5 -18 -18 -33 hhcurveto
          -8 -43 rlineto
          66 42 35 79 13 hvcurveto
          5 26 2 30 -2 35 rrcurveto
          -295 hmoveto
          107 callgsubr
          endchar
        </CharString>
        <CharString name="Ldot">
          -173 150 697 rmoveto
          107 callgsubr
          60 64 -44 callgsubr
        </CharString>
        <CharString name="Lslash">
          -168 163 697 rmoveto
          -54 -308 -87 -29 -15 -85 87 29 -54 -304 rlineto
          334 -93 callsubr
          -243 hlineto
          47 267 116 39 15 86 -116 -39 49 274 rlineto
          endchar
        </CharString>
        <CharString name="M">
          256 256 callgsubr
          91 514 140 -514 rlineto
          64 hlineto
          321 516 -91 -516 rlineto
          91 hlineto
          122 692 rlineto
          -97 hlineto
          -356 -572 -155 572 rlineto
          -98 hlineto
          endchar
        </CharString>
        <CharString name="N">
          98 607 698 32 callsubr
          endchar
        </CharString>
        <CharString name="NULL">
          -605 endchar
        </CharString>
        <CharString name="Nacute">
          98 607 698 32 callsubr
          -371 104 -39 callsubr
          endchar
        </CharString>
        <CharString name="Ncaron">
          98 607 698 32 callsubr
          -252 118 -19 callsubr
        </CharString>
        <CharString name="Ntilde">
          98 607 698 32 callsubr
          -410 54 -91 callsubr
          endchar
        </CharString>
        <CharString name="O">
          -97 callgsubr
          endchar
        </CharString>
        <CharString name="OE">
          483 1086 626 rmoveto
          14 71 rlineto
          -375 hlineto
          -25 -139 rlineto
          94 -34 -87 53 -117 hhcurveto
          -188 -181 -145 -211 -37 hvcurveto
          -209 -37 129 -147 189 hhcurveto
          116 106 53 97 68 hvcurveto
          -25 -143 rlineto
          374 hlineto
          13 72 rlineto
          -283 hlineto
          43 244 rlineto
          253 hlineto
          13 71 rlineto
          -254 hlineto
          42 239 rlineto
          -348 -3 rmoveto
          147 91 -106 -168 -29 hvcurveto
          -167 -30 -129 -107 -147 hhcurveto
          -147 -91 107 167 30 hvcurveto
          168 30 128 106 147 hhcurveto
          endchar
        </CharString>
        <CharString name="Oacute">
          -97 callgsubr
          223 519 -39 callsubr
          endchar
        </CharString>
        <CharString name="Ocircumflex">
          -97 callgsubr
          479 536 -30 callgsubr
          endchar
        </CharString>
        <CharString name="Odieresis">
          -97 callgsubr
          251 484 -92 callgsubr
          endchar
        </CharString>
        <CharString name="Ograve">
          -97 callgsubr
          232 565 15 callsubr
          endchar
        </CharString>
        <CharString name="Ohungarumlaut">
          -97 callgsubr
          472 617 89 callgsubr
        </CharString>
        <CharString name="Omacron">
          -97 callgsubr
          160 503 72 callsubr
          endchar
        </CharString>
        <CharString name="Oslash">
          181 756 416 rmoveto
          67 -18 60 -33 47 vhcurveto
          119 108 rlineto
          -75 hlineto
          -77 -70 rlineto
          49 -50 -72 28 -87 hhcurveto
          -235 -176 -183 -239 -68 18 -59 33 -47 hvcurveto
          -119 -109 rlineto
          74 hlineto
          77 71 rlineto
          -50 51 72 -28 86 hhcurveto
          237 175 183 240 hvcurveto
          -610 -127 rmoveto
          179 123 155 181 65 53 -20 -37 37 vhcurveto
          -432 -393 rlineto
          -18 32 -9 39 45 vvcurveto
          211 -214 rmoveto
          -65 -52 20 37 -37 hvcurveto
          432 394 rlineto
          18 -32 9 -39 -45 vvcurveto
          -180 -125 -155 -180 vhcurveto
          endchar
        </CharString>
        <CharString name="Otilde">
          -97 callgsubr
          183 469 -91 callsubr
          endchar
        </CharString>
        <CharString name="P">
          -26 182 363 rmoveto
          46 262 rlineto
          134 hlineto
          104 35 -51 -81 -15 hvcurveto
          -78 -14 -52 -52 -104 hhcurveto
          263 130 rmoveto
          114 20 -60 90 -164 hhcurveto
          -225 hlineto
          285 callsubr
          52 291 334 callsubr
          106 18 hvcurveto
          endchar
        </CharString>
        <CharString name="Q">
          183 146 289 rmoveto
          179 123 155 181 131 81 -81 -132 -180 -125 -155 -180 -130 -81 82 132 vhcurveto
          610 127 rmoveto
          170 -115 119 -178 -235 -176 -183 -239 -171 116 -119 176 37 35 4 9 33 vhcurveto
          113 -138 rlineto
          118 hlineto
          -143 171 rlineto
          133 69 86 140 168 vvcurveto
          endchar
        </CharString>
        <CharString name="R">
          18 callsubr
          endchar
        </CharString>
        <CharString name="Racute">
          18 callsubr
          -88 105 -39 callsubr
          endchar
        </CharString>
        <CharString name="Rcaron">
          18 callsubr
          31 119 -19 callsubr
        </CharString>
        <CharString name="S">
          -23 510 184 -47 callsubr
          -118 -13 93 -75 137 hhcurveto
          147 95 82 109 4 hvcurveto
          endchar
        </CharString>
        <CharString name="Sacute">
          -23 510 184 -47 callsubr
          -118 -13 93 -75 137 hhcurveto
          147 95 82 109 4 hvcurveto
          -241 618 -39 callsubr
          endchar
        </CharString>
        <CharString name="Scaron">
          -23 510 184 -47 callsubr
          -118 -13 93 -75 137 hhcurveto
          147 95 82 109 4 hvcurveto
          -122 632 -19 callsubr
        </CharString>
        <CharString name="T">
          -64 94 626 157 callgsubr
          endchar
        </CharString>
        <CharString name="Tcaron">
          -64 94 626 157 callgsubr
          258 119 -19 callsubr
        </CharString>
        <CharString name="Thorn">
          -26 156 219 rmoveto
          47 262 rlineto
          134 hlineto
          104 34 -52 -80 -14 hvcurveto
          -78 -14 -53 -52 -104 hhcurveto
          264 130 rmoveto
          114 20 -61 90 -164 hhcurveto
          -135 hlineto
          26 145 rlineto
          -90 hlineto
          -124 -698 rlineto
          91 hlineto
          26 146 334 callsubr
          107 19 hvcurveto
          endchar
        </CharString>
        <CharString name="U">
          -84 callgsubr
          endchar
        </CharString>
        <CharString name="Uacute">
          -84 callgsubr
          165 105 -39 callsubr
          endchar
        </CharString>
        <CharString name="Ubreve">
          -84 callgsubr
          438 188 -82 callsubr
          endchar
        </CharString>
        <CharString name="Ucircumflex">
          -84 callgsubr
          421 122 -30 callgsubr
          endchar
        </CharString>
        <CharString name="Udieresis">
          -84 callgsubr
          193 70 -92 callgsubr
          endchar
        </CharString>
        <CharString name="Ugrave">
          -84 callgsubr
          174 151 15 callsubr
          endchar
        </CharString>
        <CharString name="Uhungarumlaut">
          -84 callgsubr
          414 203 89 callgsubr
        </CharString>
        <CharString name="Umacron">
          -84 callgsubr
          102 89 72 callsubr
          endchar
        </CharString>
        <CharString name="Uogonek">
          70 70 257 rmoveto
          -28 -158 75 -83 115 -19 -53 -32 -24 -34 -6 -37 rrcurveto
          54 callgsubr
          0 vlineto
          114 24 97 83 27 150 78 440 rcurveline
          -91 hlineto
          -78 -440 rlineto
          -127 -23 -77 -56 -104 hhcurveto
          -102 -59 56 127 22 170 callgsubr
          endchar
        </CharString>
        <CharString name="Uring">
          -84 callgsubr
          185 160 11 callsubr
          endchar
        </CharString>
        <CharString name="Utilde">
          -84 callgsubr
          125 55 -91 callsubr
          endchar
        </CharString>
        <CharString name="V">
          71 234 hmoveto
          105 hlineto
          387 697 rlineto
          -98 hlineto
          -325 -599 -111 599 rlineto
          -98 hlineto
          endchar
        </CharString>
        <CharString name="W">
          -6 callgsubr
          endchar
        </CharString>
        <CharString name="Wacute">
          -6 callgsubr
          412 113 -39 callsubr
          endchar
        </CharString>
        <CharString name="Wcircumflex">
          -6 callgsubr
          596 130 -30 callgsubr
          endchar
        </CharString>
        <CharString name="Wdieresis">
          -6 callgsubr
          368 76 -92 callgsubr
          endchar
        </CharString>
        <CharString name="Wgrave">
          -6 callgsubr
          306 156 15 callsubr
          endchar
        </CharString>
        <CharString name="X">
          16 422 hmoveto
          103 hlineto
          -152 348 276 349 rlineto
          -102 hlineto
          -208 -272 -119 272 rlineto
          -102 hlineto
          152 -348 -276 -349 rlineto
          102 hlineto
          207 273 rlineto
          endchar
        </CharString>
        <CharString name="Y">
          8 callsubr
          endchar
        </CharString>
        <CharString name="Yacute">
          8 callsubr
          177 105 -39 callsubr
          endchar
        </CharString>
        <CharString name="Ycircumflex">
          8 callsubr
          434 122 -30 callgsubr
          endchar
        </CharString>
        <CharString name="Ydieresis">
          8 callsubr
          206 70 -92 callgsubr
          endchar
        </CharString>
        <CharString name="Ygrave">
          8 callsubr
          186 151 15 callsubr
          endchar
        </CharString>
        <CharString name="Z">
          53 callsubr
          endchar
        </CharString>
        <CharString name="Zacute">
          53 callsubr
          -305 177 -39 callsubr
          endchar
        </CharString>
        <CharString name="Zcaron">
          53 callsubr
          -186 191 -19 callsubr
        </CharString>
        <CharString name="Zdotaccent">
          53 callsubr
          -196 136 -44 callgsubr
        </CharString>
        <CharString name="a">
          -99 callgsubr
          endchar
        </CharString>
        <CharString name="a.ss02">
          -4 380 hmoveto
          -101 callsubr
        </CharString>
        <CharString name="aacute">
          -99 callgsubr
          -217 382 -39 callsubr
          endchar
        </CharString>
        <CharString name="aacute.ss02">
          -4 288 344 callgsubr
          -144 -782 rmoveto
          -101 callsubr
        </CharString>
        <CharString name="abreve">
          -99 callgsubr
          56 465 -82 callsubr
          endchar
        </CharString>
        <CharString name="abreve.ss02">
          -4 561 740 -82 callsubr
          -181 -740 rmoveto
          -101 callsubr
        </CharString>
        <CharString name="acircumflex">
          -99 callgsubr
          40 399 -30 callgsubr
          endchar
        </CharString>
        <CharString name="acircumflex.ss02">
          -4 545 674 -30 callgsubr
          -152 -602 rmoveto
          -101 callsubr
        </CharString>
        <CharString name="acute">
          -358 82 344 callgsubr
          endchar
        </CharString>
        <CharString name="adieresis">
          -99 callgsubr
          -188 347 -92 callgsubr
          endchar
        </CharString>
        <CharString name="adieresis.ss02">
          -4 317 622 -92 callgsubr
          -100 -622 rmoveto
          -101 callsubr
        </CharString>
        <CharString name="ae">
          492 7 callsubr
          endchar
        </CharString>
        <CharString name="agrave">
          -99 callgsubr
          -208 428 15 callsubr
          endchar
        </CharString>
        <CharString name="agrave.ss02">
          -4 297 703 15 callsubr
          69 -782 rmoveto
          -101 callsubr
        </CharString>
        <CharString name="amacron">
          -99 callgsubr
          -279 366 72 callsubr
          endchar
        </CharString>
        <CharString name="amacron.ss02">
          -4 225 641 72 callsubr
          143 -709 rmoveto
          -101 callsubr
        </CharString>
        <CharString name="ampersand">
          145 550 556 rmoveto
          1 9 1 9 9 vvcurveto
          73 -57 55 -95 -125 -87 -78 -111 -35 12 -32 27 -38 vhcurveto
          -122 -46 -84 -90 -115 vvcurveto
          -111 82 -67 130 97 81 34 70 79 vhcurveto
          75 -92 rlineto
          118 hlineto
          -129 157 18 19 17 21 17 23 rlinecurve
          107 142 rlineto
          -98 hlineto
          -89 -113 -8 -10 -8 -10 -7 -9 rlinecurve
          -172 209 rlineto
          -33 44 -17 31 33 vvcurveto
          54 44 45 61 44 30 -24 -41 -5 0 -5 -1 -5 vhcurveto
          -213 -490 rmoveto
          -81 -51 47 66 85 65 60 94 34 hvcurveto
          168 -205 rlineto
          -59 -63 -61 -28 -71 hhcurveto
          endchar
        </CharString>
        <CharString name="ampersand.ss03">
          58 207 571 rmoveto
          -10 -57 18 -45 35 -54 8 -11 rcurveline
          -3 -2 0 -3 hhcurveto
          -104 -102 -80 -123 -22 hvcurveto
          -125 -23 80 -84 113 hhcurveto
          98 89 66 87 35 hvcurveto
          91 -145 rlineto
          109 hlineto
          -290 469 -24 39 -9 26 7 36 rlinecurve
          46 8 40 40 55 hhcurveto
          56 30 -38 -54 -10 hvcurveto
          -2 -11 -4 -15 -6 -10 rrcurveto
          89 hlineto
          7 13 5 17 3 15 rrcurveto
          80 14 -47 80 -121 hhcurveto
          -117 -77 -80 -82 -14 hvcurveto
          -104 -369 rmoveto
          78 14 62 52 69 hhcurveto
          67 52 -58 -76 -14 hvcurveto
          -73 -12 -65 -57 -70 hhcurveto
          -69 -48 55 79 14 hvcurveto
          endchar
        </CharString>
        <CharString name="aogonek">
          79 callgsubr
          146 hhcurveto
          101 80 52 59 44 hvcurveto
          -16 -85 -78 -38 -34 -41 -7 -44 rlinecurve
          54 callgsubr
          353 callsubr
          -92 hlineto
          -18 -100 rlineto
          57 -22 -60 52 -102 -92 callsubr
          endchar
        </CharString>
        <CharString name="aogonek.ss02">
          -4 448 -192 172 callsubr
          59 27 rcurveline
          57 321 rlineto
          3 20 2 19 16 vvcurveto
          121 -81 65 -113 -141 -90 -85 -115 -37 vhcurveto
          89 hlineto
          80 27 60 44 74 hhcurveto
          78 40 -43 -78 -13 -1 -14 -3 -15 hvcurveto
          -169 hlineto
          -140 -109 -74 -116 -89 63 -54 96 96 84 48 58 40 hvcurveto
          -14 -79 142 callgsubr
          -335 343 rmoveto
          58 51 49 92 vhcurveto
          169 hlineto
          -2 -13 rlineto
          -117 -21 -104 -59 -85 hhcurveto
          -63 -37 32 50 hvcurveto
          endchar
        </CharString>
        <CharString name="apostrophemod.ss01">
          -443 117 785 rmoveto
          120 callsubr
        </CharString>
        <CharString name="approxequal">
          -86 30 201 rmoveto
          102 callgsubr
          211 vmoveto
          102 callgsubr
          endchar
        </CharString>
        <CharString name="aring">
          -99 callgsubr
          -196 437 11 callsubr
          endchar
        </CharString>
        <CharString name="aring.ss02">
          -4 309 712 11 callsubr
          -90 -713 rmoveto
          -101 callsubr
        </CharString>
        <CharString name="asciicircum">
          24 477 169 rmoveto
          95 hlineto
          -144 524 rlineto
          -84 hlineto
          -328 -524 rlineto
          94 hlineto
          258 412 rlineto
          endchar
        </CharString>
        <CharString name="asciitilde">
          -86 30 248 rmoveto
          102 callgsubr
          endchar
        </CharString>
        <CharString name="asterisk">
          -119 360 734 rmoveto
          -75 hlineto
          -11 -152 -109 88 -47 -65 128 -57 -150 -58 27 -68 138 89 -41 -151 rlineto
          74 hlineto
          10 151 107 -88 47 66 -129 58 150 58 -25 65 -138 -88 rlineto
          endchar
        </CharString>
        <CharString name="at">
          406 720 -7 rmoveto
          139 78 160 154 198 -138 136 -225 -294 -211 -224 -284 -203 143 -129 215 69 67 12 25 61 hvcurveto
          -13 62 rlineto
          -24 -50 -60 -10 -55 hhcurveto
          -189 -113 97 178 245 177 191 241 191 110 -101 -174 -105 -43 -142 -87 -50 -9 38 57 9 hvcurveto
          51 289 rlineto
          -80 hlineto
          -11 -62 rlineto
          48 -22 -43 24 -63 hhcurveto
          -145 -100 -135 -149 -104 60 -68 103 70 67 35 58 41 hvcurveto
          -56 6 35 -37 68 hhcurveto
          -96 254 rmoveto
          -103 -6 -70 -80 -88 hhcurveto
          -71 -34 47 68 99 60 101 100 78 36 -59 -73 -5 hvcurveto
          endchar
        </CharString>
        <CharString name="atilde">
          -99 callgsubr
          -256 332 -91 callsubr
          endchar
        </CharString>
        <CharString name="atilde.ss02">
          -4 249 607 -91 callsubr
          131 -607 rmoveto
          -101 callsubr
        </CharString>
        <CharString name="b">
          71 196 446 rmoveto
          52 294 rlineto
          -91 hlineto
          -131 -740 rlineto
          91 hlineto
          18 101 rlineto
          -60 24 62 -50 234 callgsubr
          -92 110 -149 hhcurveto
          -97 -81 -50 -61 -46 hvcurveto
          342 -170 125 callsubr
        </CharString>
        <CharString name="backslash">
          -96 268 942 rmoveto
          -90 hlineto
          87 -1112 rlineto
          89 hlineto
          endchar
        </CharString>
        <CharString name="bar">
          -314 190 795 rmoveto
          -160 -901 rlineto
          91 hlineto
          160 901 rlineto
          endchar
        </CharString>
        <CharString name="braceleft">
          -143 203 262 rmoveto
          -58 -74 -203 -75 vvcurveto
          -75 49 -38 76 vhcurveto
          58 hlineto
          15 79 rlineto
          -41 hlineto
          -43 -23 16 33 hvcurveto
          54 72 214 69 vvcurveto
          51 -26 29 -60 15 vhcurveto
          1 2 78 15 40 51 12 70 rlinecurve
          15 83 0 110 13 76 rrcurveto
          54 10 30 21 50 hhcurveto
          41 hlineto
          14 79 rlineto
          -58 hlineto
          -88 -69 -50 -98 -17 hvcurveto
          -16 -85 2 -109 -14 -78 -10 -54 -36 -38 -75 -13 -13 -71 rcurveline
          60 -11 27 -22 -43 vvcurveto
          endchar
        </CharString>
        <CharString name="braceright">
          -143 381 409 rmoveto
          -73 14 -20 41 9 50 14 78 38 109 16 85 rrcurveto
          98 17 -52 50 -88 hhcurveto
          -58 hlineto
          -13 -79 rlineto
          40 hlineto
          50 23 -21 -54 -9 hvcurveto
          -13 -76 -39 -110 -15 -83 -11 -68 22 -52 74 -16 -1 -2 rcurveline
          -79 -17 -41 -52 -12 -68 -15 -83 0 -110 -14 -76 rrcurveto
          -54 -9 -30 -21 -50 hhcurveto
          -41 hlineto
          -14 -79 rlineto
          58 hlineto
          87 70 50 98 17 hvcurveto
          16 85 -2 109 15 78 8 50 35 41 77 14 rrcurveto
          endchar
        </CharString>
        <CharString name="bracketleft">
          -182 50 -178 rmoveto
          180 hlineto
          14 76 rlineto
          -94 hlineto
          170 968 rlineto
          95 hlineto
          13 76 rlineto
          -180 hlineto
          endchar
        </CharString>
        <CharString name="bracketright">
          -182 226 934 rmoveto
          -13 -75 rlineto
          95 hlineto
          -172 -969 rlineto
          -94 hlineto
          -13 -76 rlineto
          180 hlineto
          197 1120 rlineto
          endchar
        </CharString>
        <CharString name="breve">
          -285 382 740 -82 callsubr
          endchar
        </CharString>
        <CharString name="brokenbar">
          -314 98 273 rmoveto
          -68 -379 rlineto
          91 hlineto
          68 379 rlineto
          25 144 rmoveto
          67 378 rlineto
          -91 hlineto
          -67 -378 rlineto
          endchar
        </CharString>
        <CharString name="bullet">
          -193 191 211 rmoveto
          70 64 54 68 12 hvcurveto
          69 12 -45 54 -69 hhcurveto
          -68 -64 -54 -69 -12 hvcurveto
          -68 -12 45 -54 67 hhcurveto
          endchar
        </CharString>
        <CharString name="c">
          -25 callgsubr
          endchar
        </CharString>
        <CharString name="cacute">
          -25 callgsubr
          214 382 -39 callsubr
          endchar
        </CharString>
        <CharString name="caron">
          -294 224 671 -19 callsubr
        </CharString>
        <CharString name="ccaron">
          -25 callgsubr
          332 396 -19 callsubr
        </CharString>
        <CharString name="ccedilla">
          2 40 275 rmoveto
          -29 -162 78 -106 136 -14 -19 -107 rcurveline
          4 callgsubr
          8 50 rcurveline
          122 10 91 73 44 101 rrcurveto
          -98 hlineto
          -69 -32 -61 -39 -80 hhcurveto
          -100 -62 71 136 24 hvcurveto
          134 23 87 71 100 hhcurveto
          81 48 -42 -66 7 hvcurveto
          98 hlineto
          115 -8 -76 70 -136 hhcurveto
          -156 -131 -110 -172 -31 hvcurveto
          endchar
        </CharString>
        <CharString name="cdotaccent">
          -25 callgsubr
          322 342 -44 callgsubr
        </CharString>
        <CharString name="cedilla">
          -333 76 7 rmoveto
          -61 220 callsubr
          4 callgsubr
          rrcurveto
          endchar
        </CharString>
        <CharString name="cent">
          60 538 184 rmoveto
          -85 hlineto
          -64 -27 -57 -40 -83 hhcurveto
          -99 -62 64 118 21 hvcurveto
          118 22 83 65 99 hhcurveto
          83 43 -41 -63 4 hvcurveto
          85 hlineto
          6 97 -67 72 -117 9 16 92 rcurveline
          -54 hlineto
          -16 -92 -149 -13 -100 -106 -24 -138 rlinecurve
          -23 -138 61 -106 145 -13 -17 -94 rcurveline
          54 hlineto
          17 94 120 9 91 73 30 97 rlinecurve
          endchar
        </CharString>
        <CharString name="circumflex">
          -294 362 674 -30 callgsubr
          endchar
        </CharString>
        <CharString name="colon">
          -392 126 244 callgsubr
          428 vmoveto
          152 callsubr
        </CharString>
        <CharString name="colon.ss01">
          -367 9 hmoveto
          110 hlineto
          20 112 rlineto
          -109 hlineto
          55 316 rmoveto
          110 hlineto
          19 111 rlineto
          -110 hlineto
          endchar
        </CharString>
        <CharString name="comma">
          -407 -78 -143 226 callgsubr
        </CharString>
        <CharString name="comma.ss01">
          -418 -1 206 callsubr
          endchar
        </CharString>
        <CharString name="copyright">
          187 470 704 rmoveto
          -206 -167 -147 -208 -37 hvcurveto
          -208 -36 115 -147 206 hhcurveto
          205 167 147 208 37 hvcurveto
          208 37 -116 147 -205 hhcurveto
          -6 -39 rmoveto
          186 95 -127 -189 -34 hvcurveto
          -188 -33 -140 -129 -186 hhcurveto
          -187 -95 129 188 33 hvcurveto
          189 33 140 127 188 hhcurveto
          -17 -84 rmoveto
          100 69 -54 -95 9 hvcurveto
          -84 hlineto
          54 -7 -42 29 -57 hhcurveto
          -76 -69 -56 -110 -20 hvcurveto
          -109 -19 50 -56 76 hhcurveto
          62 45 30 53 28 hvcurveto
          84 hlineto
          -90 -42 -88 -59 -101 hhcurveto
          -120 -81 88 144 25 hvcurveto
          144 26 112 87 120 hhcurveto
          endchar
        </CharString>
        <CharString name="currency">
          -68 388 377 rmoveto
          -80 -14 -59 -42 -54 hhcurveto
          -56 -38 42 80 14 hvcurveto
          79 14 54 43 56 hhcurveto
          55 42 -43 -79 -14 hvcurveto
          23 -207 rmoveto
          49 42 -49 59 25 29 19 36 7 41 rlinecurve
          7 42 -6 37 -15 28 71 60 rcurveline
          -34 42 -72 -61 rlineto
          19 -26 -33 10 -39 hhcurveto
          -39 -36 -10 -19 -32 hvcurveto
          -50 61 -50 -42 50 -60 -25 -28 -18 -37 -7 -42 rlinecurve
          -7 -41 4 -36 14 -29 -70 -59 rcurveline
          35 -42 70 59 rlineto
          -19 25 33 -10 39 hhcurveto
          39 38 11 19 33 hvcurveto
          endchar
        </CharString>
        <CharString name="d">
          79 callgsubr
          147 hhcurveto
          100 80 51 61 44 hvcurveto
          -19 -103 rlineto
          92 hlineto
          131 740 rlineto
          -92 hlineto
          -51 -290 rlineto
          63 -28 -70 44 -86 30 callgsubr
        </CharString>
        <CharString name="dagger">
          -59 354 540 rmoveto
          51 241 rlineto
          -90 hlineto
          -33 -241 -192 8 -12 -72 194 8 -141 -744 rlineto
          91 hlineto
          122 744 191 -8 12 72 rlineto
          endchar
        </CharString>
        <CharString name="daggerdbl">
          -58 548 548 rmoveto
          -194 -8 51 241 rlineto
          -90 hlineto
          -33 -241 -191 8 -12 -72 194 8 -80 -447 -190 9 -13 -73 193 8 -52 -241 rlineto
          91 hlineto
          33 241 191 -8 14 73 -195 -9 79 447 191 -8 rlineto
          endchar
        </CharString>
        <CharString name="danda">
          -323 326 callgsubr
          endchar
        </CharString>
        <CharString name="dcaron">
          149 731 740 rmoveto
          -15 -86 rlineto
          49 hlineto
          -4 -23 rlineto
          -35 -7 -16 -18 -35 hhcurveto
          -7 -43 rlineto
          66 42 35 78 14 hvcurveto
          4 27 2 30 -1 35 rrcurveto
          -783 -464 99 callsubr
          147 hhcurveto
          100 80 51 61 44 hvcurveto
          -19 -103 rlineto
          92 hlineto
          131 740 rlineto
          -92 hlineto
          -51 -290 rlineto
          63 -28 -70 44 -86 30 callgsubr
        </CharString>
        <CharString name="dcroat">
          70 111 callsubr
          147 hhcurveto
          100 80 51 61 44 hvcurveto
          -19 -103 rlineto
          92 hlineto
          107 605 rlineto
          61 hlineto
          10 54 rlineto
          -61 263 callsubr
          -92 250 callgsubr
          -112 hlineto
          -10 -54 rlineto
          112 hlineto
          -27 -155 rlineto
          63 -28 -70 44 -86 30 callgsubr
        </CharString>
        <CharString name="degree">
          -195 70 524 rmoveto
          -107 -19 60 -70 103 hhcurveto
          103 87 70 107 19 hvcurveto
          107 19 -62 68 -102 hhcurveto
          -103 -86 -68 -107 -19 hvcurveto
          279 hmoveto
          -81 -14 -56 -41 -56 hhcurveto
          -57 -37 41 81 14 hvcurveto
          79 14 54 43 56 hhcurveto
          57 39 -43 -79 -14 hvcurveto
          endchar
        </CharString>
        <CharString name="dieresis">
          -291 135 622 -92 callgsubr
          endchar
        </CharString>
        <CharString name="divide">
          327 callsubr
          262 -253 rmoveto
          -51 callsubr
          75 429 rmoveto
          152 callsubr
        </CharString>
        <CharString name="divide.ss01">
          327 callsubr
          146 -309 rmoveto
          110 hlineto
          19 113 rlineto
          -109 hlineto
          55 313 rmoveto
          110 hlineto
          19 112 rlineto
          -110 hlineto
          endchar
        </CharString>
        <CharString name="dollar">
          17 202 -87 rmoveto
          54 hlineto
          14 81 138 9 86 95 16 93 rlinecurve
          25 139 -101 29 -95 25 43 243 rcurveline
          58 -13 25 -45 -2 -42 rrcurveto
          97 hlineto
          7 101 -60 66 -112 11 15 83 rcurveline
          -54 hlineto
          -15 -83 -127 -8 -96 -76 -18 -109 rlinecurve
          -25 -139 103 -28 95 -26 -44 -250 rcurveline
          -70 11 -24 49 4 52 rrcurveto
          -97 hlineto
          -17 -106 72 -71 119 -10 rrcurveto
          202 192 rmoveto
          -11 -60 -48 -49 -76 -9 42 236 rcurveline
          60 -20 45 -27 -12 -71 rrcurveto
          -225 331 rmoveto
          12 71 55 37 68 5 -40 -231 rcurveline
          -61 19 -47 28 13 71 rrcurveto
          endchar
        </CharString>
        <CharString name="dotaccent">
          -462 131 622 -44 callgsubr
        </CharString>
        <CharString name="dotlessi">
          92 callsubr
          endchar
        </CharString>
        <CharString name="dottedcircle">
          46 557 409 -10 callsubr
          -376 -286 -10 callsubr
          98 -76 -10 callsubr
          -143 189 -10 callsubr
          267 -203 -10 callsubr
          -252 324 -10 callsubr
          367 -278 -10 callsubr
          -291 377 -10 callsubr
          364 -281 -10 callsubr
          -247 323 -10 callsubr
          257 -203 -10 callsubr
          -136 188 -10 callsubr
          endchar
        </CharString>
        <CharString name="doubledanda">
          -112 326 callgsubr
          341 741 rmoveto
          -83 hlineto
          -130 -741 rlineto
          83 hlineto
          endchar
        </CharString>
        <CharString name="dvA">
          222 295 448 rmoveto
          -68 callsubr
          83 hlineto
          119 10 callsubr
          -215 -57 callgsubr
          endchar
        </CharString>
        <CharString name="dvAA">
          514 295 448 rmoveto
          -68 callsubr
          83 hlineto
          241 callsubr
          -508 -57 callgsubr
          endchar
        </CharString>
        <CharString name="dvAI">
          46 291 19 rmoveto
          34 callsubr
          -117 hlineto
          223 -91 -48 18 -131 hhcurveto
          -41 hlineto
          -12 -68 rlineto
          41 hlineto
          98 31 -14 -159 74 hvcurveto
          -509 -95 callsubr
          233 callsubr
          endchar
        </CharString>
        <CharString name="dvAU">
          514 656 hmoveto
          241 callsubr
          -82 hlineto
          289 -98 206 callgsubr
          106 22 -5 -90 99 hvcurveto
          -352 -57 callgsubr
          -68 callsubr
          endchar
        </CharString>
        <CharString name="dvAbbreviationsign">
          -112 276 510 rmoveto
          -99 -79 -67 -94 -17 hvcurveto
          -94 -17 60 -68 98 hhcurveto
          97 77 67 93 17 hvcurveto
          96 16 -57 67 -96 hhcurveto
          -8 -52 rmoveto
          65 36 -46 -65 -11 hvcurveto
          -63 -11 -53 -44 -64 hhcurveto
          -67 -40 45 64 11 hvcurveto
          64 11 56 45 67 hhcurveto
          endchar
        </CharString>
        <CharString name="dvAcandra">
          222 295 448 rmoveto
          -68 callsubr
          83 hlineto
          119 10 callsubr
          -215 -57 callgsubr
          541 392 70 callgsubr
          endchar
        </CharString>
        <CharString name="dvAnusvara">
          -605 -65 835 rmoveto
          31 29 25 31 5 hvcurveto
          31 5 -19 25 -33 hhcurveto
          -31 -29 -25 -31 -5 hvcurveto
          -31 -5 20 -25 32 hhcurveto
          endchar
        </CharString>
        <CharString name="dvAnusvara.amI">
          -605 113 835 rmoveto
          32 29 25 31 6 hvcurveto
          31 5 -21 25 -32 hhcurveto
          -31 -29 348 callsubr
        </CharString>
        <CharString name="dvAvagraha">
          -29 22 61 rmoveto
          259 hlineto
          97 55 55 68 12 hvcurveto
          28 161 -243 83 20 112 rrcurveto
          50 9 48 11 40 hhcurveto
          183 hlineto
          12 71 rlineto
          -203 hlineto
          -83 -74 -33 -87 -15 hvcurveto
          -30 -164 245 -83 -20 -109 rrcurveto
          -36 -5 -31 -27 -52 hhcurveto
          -239 hlineto
          endchar
        </CharString>
        <CharString name="dvB">
          -185 277 91 rmoveto
          160 105 111 130 22 hvcurveto
          113 18 -61 125 -170 -28 callsubr
          70 420 40 callgsubr
          -321 159 rmoveto
          599 -93 callsubr
          -600 hlineto
          247 -590 -66 callgsubr
          endchar
        </CharString>
        <CharString name="dvBA">
          84 439 hmoveto
          117 callsubr
          -742 -95 callsubr
          530 hlineto
          139 callgsubr
          -138 -116 -90 -146 -25 hvcurveto
          -145 -26 -21 callgsubr
          endchar
        </CharString>
        <CharString name="dvBH">
          -87 224 172 -45 callgsubr
          198 hlineto
          12 69 rlineto
          -198 -52 callsubr
        </CharString>
        <CharString name="dvBHA">
          189 224 172 -45 callgsubr
          164 hlineto
          -68 -385 122 callgsubr
          -50 -286 rlineto
          -164 -52 callsubr
        </CharString>
        <CharString name="dvBH_LA">
          806 224 172 -45 callgsubr
          142 hlineto
          -8 -21 -7 -23 -4 -24 rrcurveto
          -139 -26 67 -109 157 hhcurveto
          11 379 callgsubr
          -10 -1 -8 hhcurveto
          -107 -41 72 98 17 hvcurveto
          90 16 55 67 90 hhcurveto
          89 28 -77 -106 -20 hvcurveto
          -2 -15 rlineto
          71 hlineto
          1 15 rlineto
          108 20 346 callsubr
          -69 198 callsubr
          -8 hvcurveto
          -14 -73 rlineto
          -1 11 15 -1 10 hhcurveto
          157 -2 98 102 24 140 21 118 -45 86 -86 23 23 134 rcurveline
          246 -93 callsubr
          -884 -95 callsubr
          555 hlineto
          -22 -129 -93 -12 -55 -67 -27 -64 rlinecurve
          -2 hlineto
          69 -6 -39 76 -107 hhcurveto
          -75 -66 -31 -58 -45 hvcurveto
          -168 -52 callsubr
        </CharString>
        <CharString name="dvBH_NA">
          704 224 172 -45 callgsubr
          152 hlineto
          -11 -21 -8 -24 -5 -26 rrcurveto
          -114 -20 74 156 callsubr
          132 callgsubr
          131 hlineto
          12 70 rlineto
          -753 -95 callsubr
          538 169 callgsubr
          -63 -56 -17 -33 -43 hvcurveto
          -198 103 callsubr
          -77 -70 -104 -16 hvcurveto
          15 callgsubr
          10 46 62 callsubr
          -93 hlineto
          -111 -93 -62 -114 -21 hvcurveto
          -106 -18 64 -71 110 hhcurveto
          540 87 rmoveto
          -77 320 callgsubr
          13 62 51 75 hhcurveto
          73 44 -52 -71 -14 hvcurveto
          -69 -13 -60 -54 -73 hhcurveto
          endchar
        </CharString>
        <CharString name="dvBH_R">
          -95 228 191 rmoveto
          -61 -39 41 64 12 hvcurveto
          58 12 54 137 callgsubr
          199 hlineto
          12 68 rlineto
          -200 113 callsubr
          -28 -195 rmoveto
          95 hlineto
          325 277 13 80 rlineto
          endchar
        </CharString>
        <CharString name="dvBH_RA">
          210 228 191 rmoveto
          -61 -39 41 64 12 hvcurveto
          58 12 54 137 callgsubr
          189 hlineto
          -20 -114 -422 -349 rlineto
          95 hlineto
          316 332 callgsubr
          133 -95 callgsubr
          -211 hlineto
          -50 -283 rlineto
          -190 113 callsubr
          endchar
        </CharString>
        <CharString name="dvBH_R_YA">
          635 228 191 rmoveto
          -61 -39 41 64 12 hvcurveto
          58 10 56 137 callgsubr
          131 -2 hlineto
          -10 -54 2 -46 13 -40 -389 -321 rcurveline
          95 hlineto
          318 272 rlineto
          -55 38 68 -31 90 32 callgsubr
          -166 hlineto
          14 81 351 callgsubr
          -123 hhcurveto
          -108 -77 -70 -102 -15 hvcurveto
          -2 -13 -1 -15 -13 vvcurveto
          81 hlineto
          14 0 11 2 12 vhcurveto
          65 10 45 39 56 hhcurveto
          66 20 -50 -79 212 callgsubr
          -95 hlineto
          -109 -93 -56 -103 -20 hvcurveto
          -103 -20 67 -71 110 hhcurveto
          605 61 rmoveto
          -127 -65 73 125 24 hvcurveto
          1 3 350 callsubr
          5 82 64 22 21 callsubr
          endchar
        </CharString>
        <CharString name="dvBH_VA">
          581 794 163 142 callsubr
          35 -87 -80 -14 338 callgsubr
          -570 9 -45 callgsubr
          144 hlineto
          -5 -15 -4 -16 -3 -16 rrcurveto
          -150 -27 84 -92 133 153 callsubr
          131 hlineto
          13 70 rlineto
          -646 -95 callsubr
          433 hlineto
          -38 -213 rlineto
          62 -21 -57 44 -95 hhcurveto
          -90 -78 -40 -69 -49 hvcurveto
          -168 -52 callsubr
        </CharString>
        <CharString name="dvBH_YA">
          635 224 172 -20 callgsubr
          600 10 rmoveto
          -127 -65 73 125 24 hvcurveto
          1 3 350 callsubr
          5 82 64 22 21 callsubr
          -609 -81 84 callgsubr
          -108 -75 -70 -104 -18 hvcurveto
          -57 callsubr
          -93 hlineto
          -111 -93 -62 -114 -21 hvcurveto
          -106 -18 64 -71 110 hhcurveto
          endchar
        </CharString>
        <CharString name="dvB_BA">
          518 347 511 40 callgsubr
          526 -511 249 callgsubr
          -1176 -95 callsubr
          964 hlineto
          139 callgsubr
          -93 -83 -41 -71 -52 hvcurveto
          64 -28 -64 49 -106 -28 callsubr
          103 80 46 67 50 hvcurveto
          -71 30 71 -42 88 hhcurveto
          95 73 47 61 41 hvcurveto
          -623 -49 -66 callgsubr
          439 3 1 callsubr
          61 359 2 callgsubr
          endchar
        </CharString>
        <CharString name="dvB_BHA">
          615 650 172 rmoveto
          -61 -38 169 callsubr
          68 hhcurveto
          92 250 callgsubr
          -83 322 callsubr
          -10 -71 rmoveto
          116 76 199 callgsubr
          14 77 rlineto
          163 269 callsubr
          133 hlineto
          11 314 callsubr
          -163 162 callgsubr
          22 -36 88 -124 hhcurveto
          -22 -20 -3 -6 -18 hvcurveto
          -660 -95 callsubr
          687 hlineto
          4 12 12 3 14 hhcurveto
          64 19 131 callsubr
          -94 hlineto
          -55 -50 -15 -30 -40 hvcurveto
          86 -15 -67 75 -131 -28 callsubr
          92 73 36 56 50 hvcurveto
          -51 23 53 -31 72 hhcurveto
          -293 410 127 callsubr
          -1 -4 -1 -4 -1 -4 -2 -7 -2 -7 -2 -8 -9 -24 -14 -25 -19 -22 38 callgsubr
          -62 -361 -66 callgsubr
          endchar
        </CharString>
        <CharString name="dvB_BH_RA">
          636 347 511 127 callsubr
          -1 -4 -1 -5 -1 -4 rrcurveto
          -1 -3 -1 -3 -3 vvcurveto
          -9 -28 -15 -29 -22 -26 38 callgsubr
          -62 -361 -66 callgsubr
          370 41 rmoveto
          -62 -38 41 64 12 hvcurveto
          58 12 54 35 67 hhcurveto
          94 hlineto
          -11 -66 rlineto
          -83 -14 -47 -49 -67 hhcurveto
          339 -191 rmoveto
          76 hlineto
          119 -71 callgsubr
          -212 hlineto
          -50 -283 rlineto
          -189 hlineto
          14 78 351 callgsubr
          -123 hhcurveto
          -23 -20 -3 -6 -18 hvcurveto
          -661 -95 callsubr
          685 hlineto
          5 13 13 2 14 hhcurveto
          66 19 -50 -79 -14 hvcurveto
          -16 -91 rlineto
          -95 hlineto
          -56 -52 -15 -29 -40 hvcurveto
          84 -16 -66 73 -130 -28 callsubr
          98 77 41 62 50 hvcurveto
          -46 24 51 -27 69 hhcurveto
          113 78 76 131 23 hvcurveto
          11 61 rlineto
          188 hlineto
          -21 -115 -419 -348 rlineto
          94 hlineto
          316 269 rlineto
          endchar
        </CharString>
        <CharString name="dvB_DA">
          440 347 511 40 callgsubr
          -62 -361 -66 callgsubr
          614 -166 -13 callsubr
          -1098 -95 callsubr
          870 hlineto
          -19 -110 rlineto
          -72 hlineto
          -102 -94 -33 -74 -58 hvcurveto
          66 -28 -64 51 273 callsubr
          102 79 45 66 51 hvcurveto
          -65 27 63 -38 80 108 callgsubr
          endchar
        </CharString>
        <CharString name="dvB_DHA">
          523 259 callgsubr
          -26 -34 -43 -18 -52 hhcurveto
          382 -52 rmoveto
          105 88 47 75 53 hvcurveto
          -39 -220 rlineto
          -60 callgsubr
          9 49 78 callgsubr
          -22 263 callgsubr
          -627 -95 callsubr
          541 131 callgsubr
          -54 -8 -63 -37 -25 -73 rrcurveto
          0 vlineto
          -9 -27 -15 -26 -20 -23 157 callsubr
          62 51 hvcurveto
          -60 25 69 -33 84 hhcurveto
          endchar
        </CharString>
        <CharString name="dvB_DH_VA">
          947 259 callgsubr
          -27 -34 -43 -17 -52 hhcurveto
          402 -53 -46 callgsubr
          -627 -95 callsubr
          541 131 callgsubr
          -56 -8 -66 -38 -22 -80 -10 -24 -14 -23 -18 -21 157 callsubr
          63 51 hvcurveto
          -64 27 75 -31 96 hhcurveto
          471 66 90 callsubr
          endchar
        </CharString>
        <CharString name="dvB_JA">
          652 286 150 -2 callsubr
        </CharString>
        <CharString name="dvB_JHA">
          703 290 150 rmoveto
          -98 -75 66 215 callgsubr
          18 37 25 28 236 -240 rcurveline
          -28 -34 -44 -18 -55 hhcurveto
          407 173 rmoveto
          -59 -47 22 60 12 hvcurveto
          69 11 69 15 56 hhcurveto
          199 hlineto
          12 61 rlineto
          -1 hlineto
          21 120 rlineto
          207 hlineto
          -61 -347 rlineto
          -56 -323 rmoveto
          82 -56 callgsubr
          -1361 0 callgsubr
          860 hlineto
          -21 -120 rlineto
          -140 hlineto
          -92 -97 -36 -108 -18 hvcurveto
          -9 -43 -8 -48 -19 -50 -34 -40 rlinecurve
          -233 241 rlineto
          29 39 49 16 50 hhcurveto
          29 25 -4 -8 22 hvcurveto
          10 58 rlineto
          8 -24 -30 5 -29 hhcurveto
          -156 -112 -97 -143 -26 hvcurveto
          -143 -24 94 -96 272 callgsubr
          89 92 118 38 hvcurveto
          27 -25 42 -12 45 -1 rrcurveto
          84 hlineto
          92 41 -42 -67 -13 hvcurveto
          -52 -8 -43 -46 -83 hhcurveto
          -94 -40 53 62 3 hvcurveto
          -72 hlineto
          -44 -248 rlineto
          76 hlineto
          28 154 rlineto
          -23 9 37 -61 108 hhcurveto
          117 68 67 84 14 hvcurveto
          10 54 -14 37 -24 25 188 -1 rcurveline
          endchar
        </CharString>
        <CharString name="dvB_J_YA">
          1108 347 511 rmoveto
          121 45 -94 -88 300 callgsubr
          241 rcurveline
          29 38 47 17 48 hhcurveto
          -61 -361 rmoveto
          -98 -75 66 112 19 hvcurveto
          8 276 callgsubr
          30 233 -242 rcurveline
          -27 -34 -44 -18 -53 hhcurveto
          1012 32 rmoveto
          -127 -61 94 125 25 hvcurveto
          1 0 2 1 2 vhcurveto
          122 7 84 60 20 114 15 83 rcurveline
          201 hlineto
          -55 -310 rlineto
          -106 -24 -92 -72 -109 hhcurveto
          246 -182 110 callsubr
          -1767 -95 callsubr
          1268 241 callgsubr
          -100 -17 -73 -36 -111 hhcurveto
          -267 hlineto
          -23 -131 149 callsubr
          -71 hhcurveto
          -65 -32 48 68 8 hvcurveto
          1 4 0 4 1 4 rrcurveto
          113 20 -60 125 -173 hhcurveto
          -149 -118 -94 -143 191 callsubr
          -26 94 -99 147 hhcurveto
          102 82 47 67 50 hvcurveto
          -46 21 45 -28 70 hhcurveto
          122 -1 82 84 20 118 11 63 rcurveline
          127 hlineto
          16 14 0 11 hhcurveto
          -164 -22 83 -119 159 hhcurveto
          103 77 290 callsubr
          endchar
        </CharString>
        <CharString name="dvB_JxA">
          652 613 98 callsubr
          -327 210 -2 callsubr
        </CharString>
        <CharString name="dvB_LA">
          724 1248 309 rmoveto
          21 118 -44 86 -87 23 23 134 rcurveline
          246 -93 callsubr
          -1382 -95 callsubr
          1053 hlineto
          -22 -129 -92 -12 -55 -67 -27 -64 rlinecurve
          -3 hlineto
          69 -6 -39 76 -107 hhcurveto
          -72 -62 -31 -58 -43 hvcurveto
          66 -28 -64 50 273 callsubr
          95 76 39 59 50 hvcurveto
          -72 22 62 -48 102 hhcurveto
          10 379 callgsubr
          -9 -1 -9 hhcurveto
          -106 -41 72 98 17 hvcurveto
          90 16 54 67 90 hhcurveto
          89 28 -77 -106 -19 hvcurveto
          -3 -15 rlineto
          71 hlineto
          2 15 rlineto
          108 19 346 callsubr
          -68 -71 -104 hhcurveto
          -9 -11 1 1 -8 hvcurveto
          -13 -73 rlineto
          -1 11 15 -1 10 hhcurveto
          156 -2 99 102 23 140 rrcurveto
          -963 -159 -66 callgsubr
          62 361 40 callgsubr
          endchar
        </CharString>
        <CharString name="dvB_L_YA">
          1225 285 150 -66 callgsubr
          1129 32 rmoveto
          -126 -66 79 124 24 hvcurveto
          1 3 0 2 1 3 127 5 80 60 23 21 callsubr
          246 -182 rmoveto
          -84 callsubr
          -1884 -95 callsubr
          1384 hlineto
          -12 -69 -17 -102 -57 -45 -85 -11 rlinecurve
          -18 66 -61 36 -73 -2 -110 -4 -64 -70 -30 -71 rrcurveto
          -2 hlineto
          69 -6 -40 76 -106 hhcurveto
          -73 -62 -31 -59 -43 hvcurveto
          66 -28 -64 51 273 callsubr
          97 76 41 60 51 hvcurveto
          -74 22 61 -49 100 hhcurveto
          10 9 1 1 11 hvcurveto
          13 73 rlineto
          -1 -9 -10 -1 -8 hhcurveto
          -106 348 callgsubr
          23 -76 -107 -14 hvcurveto
          -3 -15 rlineto
          71 hlineto
          2 15 15 109 61 70 90 4 rlinecurve
          55 3 44 -29 4 -47 rrcurveto
          -1 -1 0 -1 -1 vvcurveto
          -170 -31 84 -111 167 hhcurveto
          105 78 290 callsubr
          -1229 511 40 callgsubr
          endchar
        </CharString>
        <CharString name="dvB_NA">
          628 679 188 -100 callsubr
          -332 323 40 callgsubr
          -62 -361 -66 callgsubr
          777 -150 181 callgsubr
          -1286 -95 callsubr
          1071 169 callgsubr
          -74 -64 -24 -44 -45 hvcurveto
          74 -23 -65 60 -118 278 callsubr
          80 45 67 50 hvcurveto
          -53 27 58 -33 75 -62 callsubr
          endchar
        </CharString>
        <CharString name="dvB_R">
          -185 26 670 rmoveto
          599 -93 callsubr
          -600 hlineto
          239 -649 rmoveto
          11 12 1 1 10 hvcurveto
          -178 -147 rlineto
          87 hlineto
          230 198 62 45 40 68 13 75 rlinecurve
          113 18 -61 125 -170 -28 callsubr
          70 420 40 callgsubr
          -62 -361 -66 callgsubr
          endchar
        </CharString>
        <CharString name="dvB_RA">
          83 434 152 rmoveto
          15 14 13 14 11 15 -34 -195 rcurveline
          80 5 callsubr
          -742 -95 callsubr
          530 hlineto
          377 callsubr
          -140 -117 -90 -146 -25 hvcurveto
          82 callgsubr
        </CharString>
        <CharString name="dvB_SA">
          637 347 511 40 callgsubr
          -62 -361 -66 callgsubr
          604 429 -81 callgsubr
          -1296 -95 callsubr
          796 -67 callsubr
          -43 hlineto
          85 -15 -67 74 -130 -28 callsubr
          80 67 28 44 49 hvcurveto
          -101 -1 62 -71 115 -53 callgsubr
          endchar
        </CharString>
        <CharString name="dvB_SHA">
          625 658 -8 rmoveto
          106 callsubr
          -82 hlineto
          -90 -14 -54 -57 -77 hhcurveto
          -88 -29 63 83 16 hvcurveto
          19 110 rlineto
          90 hlineto
          141 119 70 145 27 hvcurveto
          133 24 -80 81 -119 hhcurveto
          -25 -22 -3 -7 -21 hvcurveto
          1 -677 vlineto
          -55 callsubr
          702 hlineto
          4 14 16 2 16 hhcurveto
          71 44 -51 -82 -14 hvcurveto
          -105 -18 -98 -47 -103 hhcurveto
          -90 hlineto
          94 -8 -66 85 -141 -28 callsubr
          81 66 28 45 49 hvcurveto
          -107 1 66 -65 118 hhcurveto
          -311 519 40 callgsubr
          -62 -361 -66 callgsubr
          690 -150 rmoveto
          85 22 callgsubr
          -216 hlineto
          endchar
        </CharString>
        <CharString name="dvB_TA">
          517 347 511 127 callsubr
          -1 -6 -2 -7 -1 -6 -2 -5 -2 -6 -2 -6 -9 -24 -14 -24 -18 -21 38 callgsubr
          -62 -361 -66 callgsubr
          668 -150 344 callsubr
          -1177 -95 callsubr
          961 155 callgsubr
          -97 -86 -25 -57 -61 hvcurveto
          84 -17 -66 70 -128 -28 callsubr
          81 68 29 45 49 hvcurveto
          -108 15 91 -55 120 252 callgsubr
          146 240 callsubr
          endchar
        </CharString>
        <CharString name="dvB_VA">
          505 718 47 callgsubr
          -371 348 40 callgsubr
          -62 -361 -66 callgsubr
          903 520 208 callsubr
          -1163 -95 callsubr
          949 1 callgsubr
          -87 -77 -39 -67 -49 hvcurveto
          64 -28 -64 49 -106 278 callsubr
          80 45 67 50 hvcurveto
          -68 28 66 -39 87 -70 callsubr
        </CharString>
        <CharString name="dvB_YA">
          565 1001 hmoveto
          -45 callsubr
          -1224 -95 callsubr
          725 hlineto
          -12 -69 -20 -111 -65 -43 -99 -5 rlinecurve
          71 -24 -65 57 -115 -28 callsubr
          112 86 55 77 48 hvcurveto
          -69 34 71 -42 99 hhcurveto
          105 -1 77 46 46 59 -38 -216 rcurveline
          -632 150 -66 callgsubr
          470 32 87 callsubr
        </CharString>
        <CharString name="dvC">
          -141 65 461 277 callsubr
          153 118 109 142 21 hvcurveto
          222 callgsubr
          -51 143 rmoveto
          644 -95 callgsubr
          -644 hlineto
          endchar
        </CharString>
        <CharString name="dvCA">
          130 26 670 rmoveto
          573 hlineto
          -57 -323 rlineto
          0 327 callgsubr
          16 71 44 callsubr
          -126 -22 84 -74 115 hhcurveto
          85 78 41 64 48 hvcurveto
          -36 -205 rlineto
          84 5 callsubr
          -788 hlineto
          endchar
        </CharString>
        <CharString name="dvCH">
          210 24 670 rmoveto
          49 callgsubr
          211 callgsubr
          190 callgsubr
          64 callsubr
        </CharString>
        <CharString name="dvCHA">
          210 24 670 rmoveto
          49 callgsubr
          211 callgsubr
          228 callsubr
          -870 hlineto
          312 -641 -86 callgsubr
          endchar
        </CharString>
        <CharString name="dvCH_R">
          210 24 670 119 callgsubr
          64 callsubr
        </CharString>
        <CharString name="dvCH_RA">
          210 348 99 -86 callgsubr
          -324 571 119 callgsubr
          71 callsubr
          -870 hlineto
          endchar
        </CharString>
        <CharString name="dvCH_R_YA">
          23 callgsubr
          -477 -304 rmoveto
          88 hlineto
          -120 158 126 24 101 66 56 100 rlinecurve
          257 callsubr
          132 hlineto
          12 70 rlineto
          -1420 -95 callsubr
          49 callgsubr
          -24 -129 101 -78 155 -15 -167 -151 rcurveline
          87 221 callgsubr
          rlineto
          endchar
        </CharString>
        <CharString name="dvCH_YA">
          23 callgsubr
          495 488 rmoveto
          -58 callgsubr
          -1420 -95 callsubr
          49 callgsubr
          211 callgsubr
          175 142 73 126 71 hvcurveto
          257 callsubr
          endchar
        </CharString>
        <CharString name="dvC_CA">
          527 340 170 rmoveto
          -84 361 callgsubr
          252 hlineto
          -61 -31 -42 -56 -14 -68 rrcurveto
          -75 -31 -69 -61 -88 hhcurveto
          871 500 rmoveto
          -58 callgsubr
          -1185 -95 callsubr
          970 hlineto
          -59 -335 rlineto
          -93 -24 -77 -72 -98 337 callgsubr
          16 72 64 95 hhcurveto
          35 hlineto
          12 66 rlineto
          -760 hlineto
          -12 -66 rlineto
          300 callsubr
          -126 -22 90 -75 114 hhcurveto
          92 76 48 69 50 hvcurveto
          -74 19 69 -42 86 hhcurveto
          86 78 41 65 47 hvcurveto
          -36 -206 rlineto
          -34 callgsubr
          endchar
        </CharString>
        <CharString name="dvC_CHA">
          669 807 99 -11 callgsubr
          -98 21 113 -54 151 hhcurveto
          190 callgsubr
          endchar
        </CharString>
        <CharString name="dvC_CH_VA">
          671 731 -247 rmoveto
          -77 -53 51 86 15 hvcurveto
          15 77 64 57 95 3 rrcurveto
          0 vlineto
          1 2 0 1 hhcurveto
          46 43 5 10 41 hvcurveto
          -27 -153 rlineto
          -1 hlineto
          -63 -10 -57 -73 -98 hhcurveto
          76 346 -11 callgsubr
          14 -66 56 -46 81 -23 -62 -28 -46 -55 -13 -77 -21 -114 73 -80 110 -2 79 -1 59 35 37 49 -25 -143 rcurveline
          75 hlineto
          77 440 116 51 81 95 23 128 rlinecurve
          endchar
        </CharString>
        <CharString name="dvC_MA">
          653 1084 454 25 callsubr
          -453 -498 -98 callgsubr
          668 498 rmoveto
          -58 callgsubr
          -1311 -95 callsubr
          835 186 callgsubr
          -103 -90 -54 -101 -26 hvcurveto
          -71 -28 -59 -58 -83 hhcurveto
          -83 -62 37 callsubr
          -129 -23 94 -72 117 hhcurveto
          81 65 36 58 46 hvcurveto
          -57 19 55 -35 77 -42 callgsubr
          endchar
        </CharString>
        <CharString name="dvC_NA">
          646 698 188 -100 callsubr
          633 482 rmoveto
          -58 callgsubr
          -1305 -95 callsubr
          1090 hlineto
          -29 -166 rlineto
          -328 143 callgsubr
          -1 -4 rlineto
          -78 -23 -61 -62 -89 hhcurveto
          -83 35 callsubr
          -129 -23 99 -72 116 hhcurveto
          88 72 44 67 44 hvcurveto
          -57 26 59 -36 78 -62 callsubr
          -34 callgsubr
          endchar
        </CharString>
        <CharString name="dvC_R">
          -141 26 670 rmoveto
          644 -95 callgsubr
          -644 hlineto
          27 -279 277 callsubr
          9 8 0 1 9 hvcurveto
          -176 -146 rlineto
          92 hlineto
          222 193 69 46 46 72 13 85 rlinecurve
          222 callgsubr
          endchar
        </CharString>
        <CharString name="dvC_RA">
          130 26 670 rmoveto
          574 hlineto
          -58 -324 rlineto
          1 vlineto
          -98 -19 -81 -79 -101 hhcurveto
          -84 35 callsubr
          -124 -21 83 -73 116 3 3 0 2 hhcurveto
          -178 -149 rlineto
          92 hlineto
          228 195 23 16 21 20 17 23 rlinecurve
          -37 -208 rlineto
          84 5 callsubr
          -788 hlineto
          endchar
        </CharString>
        <CharString name="dvC_YA">
          611 799 182 146 callgsubr
          -1269 -95 callsubr
          770 0 callsubr
          rrcurveto
          -1 -3 0 -3 -3 vvcurveto
          -126 -30 -66 -89 -114 hhcurveto
          -83 35 callsubr
          -131 -23 98 -70 117 hhcurveto
          108 79 56 90 51 hvcurveto
          -84 29 77 -49 110 4 callsubr
          endchar
        </CharString>
        <CharString name="dvCandrabindu">
          -605 -63 818 rmoveto
          136 75 307 callgsubr
          9 hvcurveto
          -67 hlineto
          -95 -18 65 -81 131 hhcurveto
          23 301 callgsubr
          5 -15 297 callgsubr
        </CharString>
        <CharString name="dvD">
          4 455 283 callgsubr
          -342 765 279 callsubr
          -143 -25 83 -89 123 hhcurveto
          72 64 31 48 36 hvcurveto
          -11 callsubr
          endchar
        </CharString>
        <CharString name="dvDA">
          6 27 670 279 callsubr
          -143 -25 83 -89 123 hhcurveto
          72 64 31 48 36 hvcurveto
          -11 callsubr
          endchar
        </CharString>
        <CharString name="dvDA_mvR">
          -19 245 6 rmoveto
          143 115 72 143 25 hvcurveto
          -71 hlineto
          -101 -18 -82 -51 -96 hhcurveto
          -87 -52 39 67 12 hvcurveto
          64 13 61 31 65 hhcurveto
          57 hlineto
          12 63 rlineto
          -54 hlineto
          -75 -47 32 54 10 hvcurveto
          64 11 62 21 68 hhcurveto
          180 hlineto
          29 166 rlineto
          142 -93 callsubr
          -642 0 callgsubr
          421 hlineto
          -19 -106 rlineto
          -134 hlineto
          -96 -86 -35 -98 -18 hvcurveto
          -13 -77 58 -45 55 -7 rrcurveto
          -3 vlineto
          -52 -6 -78 -37 -16 -88 rrcurveto
          -105 -19 89 -57 127 hhcurveto
          endchar
        </CharString>
        <CharString name="dvDD">
          -30 278 -293 rmoveto
          85 hlineto
          -88 272 callsubr
          -164 764 -16 callsubr
          endchar
        </CharString>
        <CharString name="dvDDA">
          -30 28 670 -16 callsubr
          endchar
        </CharString>
        <CharString name="dvDDH">
          35 319 -271 204 callgsubr
          -207 742 rmoveto
          431 112 callsubr
          14 callsubr
        </CharString>
        <CharString name="dvDDHA">
          37 callgsubr
          endchar
        </CharString>
        <CharString name="dvDDH_DDHA">
          67 26 670 rmoveto
          436 hlineto
          -17 -99 rlineto
          -64 358 callgsubr
          -103 43 -72 82 -37 -92 -32 -70 -70 -20 -105 rrcurveto
          -151 -26 107 -85 166 hhcurveto
          155 99 66 100 17 hvcurveto
          81 14 -50 63 -104 hhcurveto
          -91 -70 -44 365 callsubr
          -1 5 0 7 1 7 rrcurveto
          44 7 44 30 55 hhcurveto
          64 28 -38 -50 -9 hvcurveto
          -64 -12 -76 -43 -102 hhcurveto
          -135 -67 67 110 20 hvcurveto
          120 22 110 62 117 hhcurveto
          0 1 vlineto
          144 102 66 99 18 hvcurveto
          82 15 -48 62 -106 hhcurveto
          -92 -70 -43 365 callsubr
          5 1 8 5 vvcurveto
          44 6 46 30 56 hhcurveto
          62 26 -37 -48 -8 hvcurveto
          -67 -10 -79 -43 -100 hhcurveto
          -134 -68 68 110 20 hvcurveto
          120 21 104 60 116 hhcurveto
          113 hlineto
          28 154 rlineto
          216 -95 callgsubr
          -725 hlineto
          endchar
        </CharString>
        <CharString name="dvDDH_R">
          35 309 -354 rmoveto
          86 hlineto
          -89 199 rlineto
          -84 hlineto
          -197 825 280 callgsubr
          -24 -134 69 -99 116 -33 -179 -162 rcurveline
          62 callgsubr
          -115 153 117 17 80 72 18 100 rlinecurve
          14 callsubr
        </CharString>
        <CharString name="dvDDH_RA">
          258 callgsubr
          -24 -134 69 -99 116 -33 -179 -162 rcurveline
          62 callgsubr
          -115 153 117 17 80 72 18 100 rlinecurve
          14 callsubr
        </CharString>
        <CharString name="dvDDH_VA">
          36 26 670 rmoveto
          429 hlineto
          -17 -99 rlineto
          -57 358 callgsubr
          -104 43 -74 80 -34 -72 -25 -58 -58 -14 -83 rrcurveto
          -107 -20 66 -72 110 hhcurveto
          73 57 34 49 36 hvcurveto
          -27 -156 rlineto
          70 hlineto
          75 426 56 30 36 46 10 58 rlinecurve
          79 14 -46 62 -98 hhcurveto
          -88 -69 -43 -77 -13 hvcurveto
          -2 -9 -1 -11 1 -9 rrcurveto
          57 hlineto
          5 1 8 1 5 vhcurveto
          45 6 42 29 54 hhcurveto
          54 27 -35 -50 -9 hvcurveto
          -66 -11 -69 -44 -97 hhcurveto
          -134 -67 68 110 20 hvcurveto
          121 21 105 59 116 hhcurveto
          106 hlineto
          27 154 rlineto
          192 -93 callsubr
          -695 hlineto
          185 -893 rmoveto
          -71 -49 47 75 15 hvcurveto
          84 16 72 48 117 hhcurveto
          29 26 3 5 25 hvcurveto
          -24 -139 rlineto
          -60 -17 -53 -63 -86 hhcurveto
          endchar
        </CharString>
        <CharString name="dvDDH_YA">
          664 1018 hmoveto
          202 callsubr
          -1324 0 callgsubr
          431 112 callsubr
          -79 callsubr
          324 hlineto
          59 77 -11 -73 -12 hvcurveto
          -66 -12 -61 -18 -75 hhcurveto
          -27 hlineto
          -2 -10 -3 -10 -2 -10 rrcurveto
          -144 -25 71 -84 130 hhcurveto
          91 63 42 63 43 hvcurveto
          -172 -41 rmoveto
          -100 -40 66 86 16 hvcurveto
          1 4 96 2 74 35 15 89 rlinecurve
          102 17 -84 36 -117 hhcurveto
          -240 hlineto
          20 114 rlineto
          600 hlineto
          -58 -331 rlineto
          0 vlineto
          -121 -21 -74 -82 -105 hhcurveto
          endchar
        </CharString>
        <CharString name="dvDDHxA">
          37 callgsubr
          211 -923 rmoveto
          -104 callsubr
          endchar
        </CharString>
        <CharString name="dvDD_DDA">
          -16 26 670 rmoveto
          411 hlineto
          -18 -102 rlineto
          -111 hlineto
          -92 -87 -28 -92 -16 hvcurveto
          -96 -17 82 -31 295 callsubr
          -44 48 61 9 hvcurveto
          -80 hlineto
          -11 -63 34 -48 56 -23 -55 -16 -39 -31 -10 -54 rrcurveto
          -97 -17 80 -26 117 hhcurveto
          81 63 -12 -75 -13 hvcurveto
          -53 -9 -50 -33 -80 hhcurveto
          -100 -51 44 66 10 hvcurveto
          -80 hlineto
          -106 -16 91 -61 139 hhcurveto
          130 79 54 90 17 hvcurveto
          112 20 -84 29 -128 hhcurveto
          -76 -57 8 62 12 hvcurveto
          48 9 48 18 97 hhcurveto
          135 81 54 89 16 hvcurveto
          109 20 -82 32 -128 hhcurveto
          -72 -59 13 57 13 hvcurveto
          52 10 51 15 56 hhcurveto
          175 hlineto
          10 56 rlineto
          0 vlineto
          18 102 rlineto
          153 -93 callsubr
          -643 hlineto
          endchar
        </CharString>
        <CharString name="dvDD_DDHA">
          -4 57 670 rmoveto
          398 hlineto
          -17 -102 rlineto
          -112 hlineto
          -92 -86 -33 -93 -17 hvcurveto
          -96 -16 81 -25 295 callsubr
          -43 48 61 7 hvcurveto
          -79 hlineto
          -11 -69 40 -49 64 -21 -92 -29 -71 -69 -20 -109 rrcurveto
          -148 -26 108 -79 152 hhcurveto
          144 92 66 99 17 hvcurveto
          82 15 -49 62 -99 hhcurveto
          -87 -65 -44 -77 -14 hvcurveto
          -2 -8 -1 -12 1 -9 rrcurveto
          57 hlineto
          -1 5 0 8 1 6 rrcurveto
          43 8 40 31 52 hhcurveto
          57 28 -37 -51 -9 hvcurveto
          -65 -12 -72 -43 -93 hhcurveto
          -124 -66 67 102 19 hvcurveto
          22 116 101 61 115 4 132 7 72 49 16 87 rrcurveto
          109 20 -82 32 -128 hhcurveto
          -72 -57 7 58 10 hvcurveto
          56 11 60 16 50 hhcurveto
          172 hlineto
          11 56 rlineto
          -1 hlineto
          19 102 rlineto
          140 -93 callsubr
          -618 hlineto
          endchar
        </CharString>
        <CharString name="dvDD_R">
          -30 256 -376 rmoveto
          85 hlineto
          -88 199 rlineto
          -84 hlineto
          -141 847 33 callsubr
        </CharString>
        <CharString name="dvDD_RA">
          -30 28 670 33 callsubr
        </CharString>
        <CharString name="dvDD_VA">
          -3 368 -291 rmoveto
          74 422 31 24 19 33 7 40 rlinecurve
          19 108 -79 33 -117 3 rrcurveto
          -78 -64 6 61 11 hvcurveto
          61 11 62 12 49 hhcurveto
          172 hlineto
          10 56 rlineto
          0 vlineto
          18 102 rlineto
          168 -95 callgsubr
          -655 -95 callsubr
          409 hlineto
          -18 -102 rlineto
          -111 hlineto
          -93 -86 -31 -92 -16 hvcurveto
          -107 -19 99 -21 93 hhcurveto
          83 68 -12 -77 -14 hvcurveto
          -54 -10 -49 -32 -78 hhcurveto
          -108 -45 49 59 10 hvcurveto
          -81 hlineto
          -11 -66 37 -53 65 -25 -68 -22 -56 -55 -13 -79 rrcurveto
          -105 -19 64 -68 104 hhcurveto
          66 56 25 46 37 hvcurveto
          -24 -139 rlineto
          -107 128 rmoveto
          -70 -48 44 75 14 hvcurveto
          86 15 80 42 92 hhcurveto
          34 31 4 7 27 hvcurveto
          -25 -140 rlineto
          0 vlineto
          -54 -10 -52 -64 -88 hhcurveto
          endchar
        </CharString>
        <CharString name="dvDD_YA">
          570 924 hmoveto
          82 -38 callsubr
          -1227 -95 callsubr
          407 -46 callsubr
          136 callgsubr
          330 hlineto
          57 74 -11 -71 -12 hvcurveto
          -60 -11 -60 -17 -73 hhcurveto
          -30 hlineto
          -2 -10 -3 -10 -1 -10 rrcurveto
          -144 -26 71 -84 130 hhcurveto
          92 64 43 63 42 hvcurveto
          -173 -42 rmoveto
          -99 -40 66 86 16 hvcurveto
          1 4 100 3 70 38 13 78 rlinecurve
          100 18 -81 37 -118 hhcurveto
          -168 hlineto
          22 122 rlineto
          526 hlineto
          -58 -331 rlineto
          -1 hlineto
          -121 -22 -74 -82 -105 hhcurveto
          endchar
        </CharString>
        <CharString name="dvDDxA">
          -30 28 670 -16 callsubr
          171 -946 rmoveto
          -104 callsubr
          endchar
        </CharString>
        <CharString name="dvDH">
          -171 275 97 rmoveto
          180 114 96 138 25 hvcurveto
          -74 hlineto
          -96 -16 -89 -67 -124 hhcurveto
          -81 -69 32 80 15 -83 callgsubr
          -101 -77 -66 -97 -16 hvcurveto
          27 callgsubr
          endchar
        </CharString>
        <CharString name="dvDHA">
          109 255 98 rmoveto
          105 88 47 75 53 hvcurveto
          -39 -220 rlineto
          -60 callgsubr
          9 49 78 callgsubr
          -102 -77 -66 -97 -16 hvcurveto
          246 callgsubr
        </CharString>
        <CharString name="dvDH_MA">
          657 673 172 rmoveto
          -60 -39 24 callgsubr
          11 55 40 69 hhcurveto
          93 250 callgsubr
          -83 -16 -45 -49 -66 hhcurveto
          -398 -75 rmoveto
          103 81 36 61 52 hvcurveto
          -58 20 54 -35 78 hhcurveto
          115 77 74 133 24 hvcurveto
          13 77 rlineto
          183 269 callsubr
          132 hlineto
          12 70 rlineto
          -753 -95 callsubr
          276 186 callgsubr
          -105 -91 -56 -104 -25 hvcurveto
          -80 -35 -78 -46 -106 hhcurveto
          -81 -69 32 80 15 -83 callgsubr
          -101 -77 -66 -97 -16 hvcurveto
          27 callgsubr
          812 357 25 callsubr
          endchar
        </CharString>
        <CharString name="dvDH_NA">
          653 275 97 rmoveto
          114 88 46 73 52 hvcurveto
          -60 24 60 -39 81 hhcurveto
          107 96 70 114 20 154 callsubr
          195 hlineto
          -76 -434 -33 callsubr
          -750 -95 callsubr
          534 169 callgsubr
          -123 -99 -67 -121 -22 hvcurveto
          -91 -27 -88 -57 -115 hhcurveto
          -81 -69 32 80 15 -83 callgsubr
          -101 -77 -66 -97 -16 hvcurveto
          27 callgsubr
          429 91 rmoveto
          -77 320 callgsubr
          13 62 51 76 hhcurveto
          72 44 349 callgsubr
        </CharString>
        <CharString name="dvDH_N_YA">
          1108 275 97 rmoveto
          103 82 38 62 53 hvcurveto
          -71 18 64 -47 89 hhcurveto
          110 92 70 114 21 154 callsubr
          171 hlineto
          -168 -21 89 -116 159 hhcurveto
          104 74 44 58 44 hvcurveto
          -38 -214 66 callsubr
          -1203 -95 callsubr
          705 241 callgsubr
          -102 -18 -71 -34 -117 hhcurveto
          -320 hlineto
          -117 -94 -59 -109 -28 hvcurveto
          -77 -33 -84 -52 -108 hhcurveto
          -81 -69 32 80 15 -83 callgsubr
          -101 -77 -66 -97 -16 hvcurveto
          27 callgsubr
          419 53 rmoveto
          -77 -43 325 callgsubr
          -14 hvcurveto
          -69 -12 -61 -54 -73 hhcurveto
          602 32 rmoveto
          -125 -62 97 123 19 hvcurveto
          129 7 82 60 22 118 14 83 rcurveline
          202 hlineto
          -55 -307 rlineto
          -108 -23 -93 -73 -110 hhcurveto
          endchar
        </CharString>
        <CharString name="dvDH_R">
          -177 275 97 rmoveto
          21 21 1 3 19 hvcurveto
          -200 -165 rlineto
          93 hlineto
          255 220 59 41 38 61 13 73 rlinecurve
          -74 hlineto
          -96 -16 -89 -67 -124 hhcurveto
          -81 -69 32 80 15 -83 callgsubr
          -101 -77 -66 -97 -16 hvcurveto
          27 callgsubr
          endchar
        </CharString>
        <CharString name="dvDH_RA">
          109 255 100 rmoveto
          12 11 1 1 11 hvcurveto
          -200 -166 rlineto
          94 hlineto
          267 229 rlineto
          -1 hlineto
          20 16 18 19 14 21 -39 -221 rcurveline
          -60 callgsubr
          10 48 78 callgsubr
          -102 56 callsubr
          -9 -71 -44 -17 -90 rrcurveto
          -112 -20 89 -62 116 hhcurveto
          endchar
        </CharString>
        <CharString name="dvDH_VA">
          532 275 97 -40 callgsubr
          -101 -77 -66 -97 -16 hvcurveto
          27 callgsubr
          471 66 90 callsubr
          endchar
        </CharString>
        <CharString name="dvDH_YA">
          585 275 97 -47 callgsubr
          -101 56 callsubr
          -8 -71 -43 -17 -89 rrcurveto
          -117 -20 100 -63 125 hhcurveto
          499 85 rmoveto
          -126 -65 79 125 24 hvcurveto
          2 1 3 2 vvcurveto
          127 5 80 60 23 21 callsubr
          endchar
        </CharString>
        <CharString name="dvD_BA">
          195 callgsubr
          rrcurveto
          -113 -20 71 -79 110 hhcurveto
          72 64 34 59 39 hvcurveto
          -27 -152 375 callsubr
          -15 -86 363 callgsubr
          74 45 105 hhcurveto
          156 hlineto
          31 164 callsubr
          70 5 57 29 33 43 -35 -196 260 callgsubr
        </CharString>
        <CharString name="dvD_BHA">
          766 462 283 callgsubr
          -349 765 279 callsubr
          -143 -25 83 -89 123 hhcurveto
          72 64 31 48 36 hvcurveto
          -11 callsubr
          761 -568 -45 callgsubr
          164 hlineto
          -68 -385 122 callgsubr
          -50 -286 rlineto
          -164 -52 callsubr
        </CharString>
        <CharString name="dvD_B_RA">
          195 callgsubr
          -20 -110 68 -78 105 -4 -148 -121 rcurveline
          90 hlineto
          191 161 19 14 17 18 14 20 rlinecurve
          -27 -151 375 callsubr
          -16 -85 363 callgsubr
          73 45 105 hhcurveto
          156 hlineto
          32 164 callsubr
          68 5 57 28 34 42 -34 -194 260 callgsubr
        </CharString>
        <CharString name="dvD_DA">
          -58 338 -56 rmoveto
          81 hlineto
          48 276 rlineto
          -70 hlineto
          -93 -17 -68 -52 -90 hhcurveto
          -81 -42 38 69 11 hvcurveto
          52 9 47 43 79 hhcurveto
          85 hlineto
          10 61 rlineto
          -84 hlineto
          -78 -39 38 51 9 hvcurveto
          67 12 68 26 79 hhcurveto
          145 hlineto
          27 150 rlineto
          150 -93 callsubr
          -610 -95 callsubr
          377 hlineto
          -17 -94 rlineto
          1 -28 -28 0 -28 hhcurveto
          -112 -98 -35 -106 -20 hvcurveto
          -13 -71 50 -47 58 -10 rrcurveto
          -3 vlineto
          -70 -10 -57 -54 -12 -70 rrcurveto
          -102 -18 73 -58 104 hhcurveto
          90 62 41 45 32 hvcurveto
          endchar
        </CharString>
        <CharString name="dvD_DHA">
          299 32 670 rmoveto
          724 hlineto
          -20 -110 rlineto
          -73 hlineto
          -149 -129 -72 -157 -28 hvcurveto
          -16 -91 28 -68 52 -38 rrcurveto
          -95 -36 -75 -55 -83 hhcurveto
          -71 -54 37 76 15 hvcurveto
          59 11 51 51 85 378 callgsubr
          43 63 12 hvcurveto
          11 60 55 47 93 -5 12 69 rcurveline
          -153 12 -82 -78 -16 -91 -16 -93 58 -46 57 -13 rrcurveto
          -3 vlineto
          -65 -11 -68 -51 -16 -86 rrcurveto
          -116 -21 86 -60 109 hhcurveto
          122 106 294 callsubr
          -33 -194 rlineto
          81 hlineto
          56 318 rlineto
          -77 hlineto
          -95 -17 -84 -41 -65 hhcurveto
          -94 -52 64 96 16 hvcurveto
          109 19 94 53 105 hhcurveto
          149 hlineto
          31 182 rlineto
          143 hlineto
          14 70 rlineto
          -952 hlineto
          endchar
        </CharString>
        <CharString name="dvD_GA">
          35 35 670 rmoveto
          466 hlineto
          -19 -110 rlineto
          -79 hlineto
          -147 -110 -64 -136 -25 hvcurveto
          -16 -94 41 -72 84 -22 -22 -125 rcurveline
          -47 -9 -26 -53 -66 hhcurveto
          -58 -14 49 43 7 hvcurveto
          5 28 rlineto
          -72 hlineto
          -6 -30 rlineto
          -89 -17 51 -68 98 hhcurveto
          111 55 76 93 16 hvcurveto
          20 116 62 4 55 29 34 38 rlinecurve
          -76 -431 rlineto
          78 hlineto
          97 549 rlineto
          -73 hlineto
          -82 -14 -87 -41 -60 hhcurveto
          -85 -44 50 76 14 hvcurveto
          86 15 75 47 105 hhcurveto
          154 hlineto
          31 180 rlineto
          144 -95 callgsubr
          -693 hlineto
          endchar
        </CharString>
        <CharString name="dvD_GHA">
          298 229 -16 rmoveto
          -74 -52 37 77 14 hvcurveto
          58 10 50 51 87 378 callgsubr
          147 callgsubr
          55 9 50 47 81 hhcurveto
          36 36 -9 -20 36 hvcurveto
          -25 -32 -18 -41 -9 -48 -16 -90 27 -69 53 -38 rrcurveto
          -95 -36 -75 -55 -81 hhcurveto
          -202 686 rmoveto
          728 hlineto
          -20 -110 rlineto
          -72 hlineto
          -75 -71 -18 -40 -55 hvcurveto
          30 -45 -57 20 -60 hhcurveto
          -132 -73 -74 -86 -14 hvcurveto
          -16 -91 55 -45 60 -15 -1 -3 rcurveline
          -62 -9 -70 -48 -16 -89 rrcurveto
          -116 -20 85 -62 109 hhcurveto
          126 102 294 callsubr
          -34 -194 rlineto
          82 hlineto
          294 callgsubr
          -77 hlineto
          -95 -16 -84 -41 -65 hhcurveto
          -94 -52 64 96 16 hvcurveto
          109 19 94 53 105 hhcurveto
          148 hlineto
          32 182 rlineto
          143 -93 callsubr
          -955 hlineto
          endchar
        </CharString>
        <CharString name="dvD_G_RA">
          35 26 670 rmoveto
          466 hlineto
          -19 -110 rlineto
          -79 hlineto
          -147 -111 -64 -138 -24 hvcurveto
          -16 -92 40 -71 84 -23 -11 -63 rcurveline
          -47 -7 -27 -52 -68 hhcurveto
          -57 -16 47 45 9 hvcurveto
          5 28 rlineto
          -71 hlineto
          -3 -10 -2 -10 -1 -10 rrcurveto
          -90 -8 34 -66 100 hhcurveto
          111 61 74 94 15 hvcurveto
          10 53 61 4 56 29 34 40 rlinecurve
          -32 -184 -357 -303 rlineto
          86 hlineto
          262 228 -31 -174 rlineto
          73 hlineto
          98 549 rlineto
          -73 hlineto
          -81 -15 -85 -42 -63 hhcurveto
          -84 -44 51 75 14 hvcurveto
          86 16 73 47 105 hhcurveto
          156 hlineto
          32 180 rlineto
          143 -95 callgsubr
          -693 hlineto
          endchar
        </CharString>
        <CharString name="dvD_MA">
          213 204 -117 rmoveto
          -51 -35 36 53 11 hvcurveto
          60 10 54 35 59 hhcurveto
          78 hlineto
          -11 -67 rlineto
          -73 -14 -43 -44 -58 hhcurveto
          215 252 rmoveto
          30 168 rlineto
          -178 hlineto
          -69 -46 31 66 13 hvcurveto
          58 11 56 31 67 hhcurveto
          163 hlineto
          32 181 rlineto
          191 hlineto
          -95 -535 rlineto
          -558 535 rmoveto
          380 hlineto
          -19 -110 rlineto
          -91 hlineto
          -109 -90 -42 -113 -20 hvcurveto
          -112 -20 80 -57 103 hhcurveto
          110 hlineto
          -16 -101 rlineto
          -75 hlineto
          -100 -95 -49 -110 -19 hvcurveto
          -99 -18 68 -64 96 hhcurveto
          104 70 71 123 22 hvcurveto
          10 60 rlineto
          175 hlineto
          -54 -309 rlineto
          83 hlineto
          161 912 rlineto
          134 330 callgsubr
        </CharString>
        <CharString name="dvD_NA">
          774 461 283 callgsubr
          450 283 -100 callsubr
          -360 -204 rmoveto
          294 callgsubr
          -76 hlineto
          -95 -17 -84 -41 -65 hhcurveto
          -94 -52 64 96 16 hvcurveto
          109 20 93 53 105 hhcurveto
          148 hlineto
          32 182 rlineto
          697 hlineto
          -29 -166 rlineto
          -328 hlineto
          -125 -98 -68 -122 -22 hvcurveto
          130 callgsubr
          -34 callgsubr
          132 hlineto
          12 70 rlineto
          -1430 0 callgsubr
          117 callgsubr
          105 callgsubr
        </CharString>
        <CharString name="dvD_R">
          6 454 -295 rmoveto
          87 hlineto
          -89 200 rlineto
          -84 hlineto
          -341 765 60 callgsubr
        </CharString>
        <CharString name="dvD_RA">
          6 27 670 60 callgsubr
        </CharString>
        <CharString name="dvD_VA">
          -2 26 670 rmoveto
          429 hlineto
          -19 -110 rlineto
          -80 hlineto
          -146 -111 -66 -130 -23 hvcurveto
          218 callgsubr
          77 hlineto
          192 callgsubr
          -656 hlineto
          183 -819 217 callsubr
          endchar
        </CharString>
        <CharString name="dvD_YA">
          96 246 105 rmoveto
          -84 -59 36 68 12 hvcurveto
          65 10 61 29 77 hhcurveto
          62 hlineto
          12 65 rlineto
          -64 hlineto
          -72 -55 25 64 12 hvcurveto
          63 12 67 24 69 hhcurveto
          -1 -5 4 5 rlineto
          76 hlineto
          23 126 rlineto
          158 hlineto
          -60 -342 rlineto
          1 vlineto
          -159 -28 -115 -65 -117 hhcurveto
          -201 565 rmoveto
          283 147 callsubr
          -16 -17 0 -17 hhcurveto
          -78 -93 -28 -93 -17 hvcurveto
          -15 -79 59 -37 54 -6 rrcurveto
          -3 vlineto
          -48 -6 -81 -35 -13 -91 rrcurveto
          -103 -18 91 -57 114 hhcurveto
          114 94 45 88 54 hvcurveto
          -30 -174 rlineto
          81 -56 callgsubr
          -735 hlineto
          endchar
        </CharString>
        <CharString name="dvE">
          46 25 670 rmoveto
          233 callsubr
          34 callsubr
          -705 hlineto
          endchar
        </CharString>
        <CharString name="dvEcandra">
          47 386 837 rmoveto
          141 77 85 92 15 hvcurveto
          -71 hlineto
          -55 -10 -50 -58 -91 hhcurveto
          -93 -29 58 55 10 hvcurveto
          -72 hlineto
          -92 -16 47 -85 142 hhcurveto
          -386 -167 rmoveto
          233 callsubr
          34 callsubr
          -705 hlineto
          endchar
        </CharString>
        <CharString name="dvEight">
          31 callgsubr
        </CharString>
        <CharString name="dvEyelash">
          355 387 rmoveto
          -21 49 rlineto
          -5 -20 -23 -7 -36 hhcurveto
          -79 -82 33 101 16 hvcurveto
          -78 hlineto
          -146 -24 112 -50 113 hhcurveto
          46 48 11 14 28 hvcurveto
          -360 283 rmoveto
          392 -95 callgsubr
          -392 hlineto
          endchar
        </CharString>
        <CharString name="dvEyelash_HA">
          169 661 62 -78 callgsubr
          -817 0 callgsubr
          597 hlineto
          238 callsubr
          -95 -74 -41 -85 -16 hvcurveto
          -5 -27 4 -23 9 -19 rrcurveto
          -3 -14 -16 -2 -16 hhcurveto
          -69 -64 35 93 17 hvcurveto
          -79 hlineto
          -137 -22 96 -58 99 hhcurveto
          53 35 13 12 25 hvcurveto
          3 -2 3 -2 3 -2 50 callsubr
        </CharString>
        <CharString name="dvEyelash_YA">
          323 508 182 rmoveto
          -120 -66 -90 callsubr
          -54 -307 rlineto
          -108 -22 -94 -73 -115 hhcurveto
          250 -182 rmoveto
          -84 callsubr
          -982 -95 callsubr
          483 241 callgsubr
          -119 -22 -72 -41 -111 hhcurveto
          -81 1 -78 33 17 98 rrcurveto
          -79 hlineto
          -23 -139 102 -53 111 -6 rrcurveto
          -160 -20 89 -103 156 hhcurveto
          105 3 callsubr
          endchar
        </CharString>
        <CharString name="dvFive">
          77 callsubr
        </CharString>
        <CharString name="dvFour">
          151 callsubr
        </CharString>
        <CharString name="dvG">
          -106 26 670 rmoveto
          -103 callgsubr
          128 -95 callgsubr
          -533 hlineto
          endchar
        </CharString>
        <CharString name="dvGA">
          141 492 hmoveto
          41 callsubr
          -799 -95 callsubr
          -103 callgsubr
          178 hlineto
          endchar
        </CharString>
        <CharString name="dvGH">
          -174 26 670 rmoveto
          91 callgsubr
          -118 -21 84 -68 147 hhcurveto
          163 124 112 143 26 hvcurveto
          -71 hlineto
          -107 -19 -94 -79 -117 hhcurveto
          136 callsubr
          411 -95 callgsubr
          -620 hlineto
          endchar
        </CharString>
        <CharString name="dvGHA">
          105 290 150 callsubr
          -264 496 rmoveto
          126 172 callgsubr
          88 -65 125 hhcurveto
          97 85 44 72 54 hvcurveto
          -39 -221 rlineto
          132 callgsubr
          130 -93 callsubr
          -764 hlineto
          endchar
        </CharString>
        <CharString name="dvGH_MA">
          622 1053 454 25 callsubr
          -453 -498 -98 callgsubr
          -348 2 rmoveto
          -88 -63 40 83 15 259 callsubr
          595 186 callgsubr
          -99 -88 -51 -94 -30 hvcurveto
          -75 -33 -64 -60 -93 hhcurveto
          1016 496 rmoveto
          -58 callgsubr
          -1280 202 callgsubr
          90 71 40 56 44 hvcurveto
          -62 17 56 -38 81 -42 callgsubr
          endchar
        </CharString>
        <CharString name="dvGH_NA">
          616 668 188 -100 callsubr
          -378 -14 rmoveto
          -88 -64 40 83 16 259 callsubr
          851 169 callgsubr
          -112 -90 -54 -99 -33 hvcurveto
          -5 -9 rlineto
          -100 -37 -65 -68 -97 hhcurveto
          1011 496 rmoveto
          -58 callgsubr
          -1275 202 callgsubr
          97 75 48 75 46 hvcurveto
          -67 20 64 -44 86 -62 callsubr
          -34 callgsubr
          endchar
        </CharString>
        <CharString name="dvGH_R">
          -174 26 670 rmoveto
          91 callgsubr
          -118 -21 84 -68 147 hhcurveto
          12 12 1 1 12 hvcurveto
          -194 -160 rlineto
          93 hlineto
          249 213 67 47 47 71 15 82 rlinecurve
          -71 hlineto
          -107 -19 -94 -79 -117 hhcurveto
          136 callsubr
          411 -95 callgsubr
          -620 hlineto
          endchar
        </CharString>
        <CharString name="dvGH_RA">
          105 290 366 callsubr
          15 hvcurveto
          63 12 54 50 105 hhcurveto
          48 hlineto
          12 68 rlineto
          -44 hlineto
          -100 -31 43 77 12 hvcurveto
          14 73 rlineto
          339 hlineto
          -55 -310 rlineto
          0 vlineto
          -110 -20 -104 -76 -106 hhcurveto
          -264 496 rmoveto
          126 172 callgsubr
          89 -65 124 hhcurveto
          8 8 0 1 8 hvcurveto
          -193 -159 rlineto
          93 hlineto
          249 212 24 17 21 21 18 24 rlinecurve
          -39 -221 rlineto
          132 callgsubr
          130 -93 callsubr
          -764 hlineto
          endchar
        </CharString>
        <CharString name="dvGH_YA">
          584 290 174 rmoveto
          136 callsubr
          533 0 callsubr
          -1 -8 -2 -8 -1 -8 rrcurveto
          -115 -25 -91 -81 -113 hhcurveto
          481 8 146 callgsubr
          -1241 248 callgsubr
          -118 -21 84 -68 147 hhcurveto
          108 90 53 81 57 hvcurveto
          -80 31 76 -47 107 4 callsubr
          endchar
        </CharString>
        <CharString name="dvG_BA">
          528 882 hmoveto
          117 callsubr
          -1185 -95 callsubr
          -103 callgsubr
          568 hlineto
          139 callgsubr
          -138 -116 -90 -146 -25 hvcurveto
          -145 -26 198 callgsubr
          -184 -46 1 callsubr
          61 359 2 callgsubr
          endchar
        </CharString>
        <CharString name="dvG_BHA">
          627 661 172 rmoveto
          61 callsubr
          -13 -47 -49 -67 hhcurveto
          -11 -71 rmoveto
          119 75 97 callgsubr
          164 hlineto
          -68 -385 122 callgsubr
          -50 -286 rlineto
          -164 263 callsubr
          126 23 -33 88 -125 hhcurveto
          330 callsubr
          -18 hvcurveto
          -673 -95 callsubr
          322 -30 callsubr
          -13 50 48 372 callgsubr
          -82 hlineto
          -6 -30 rlineto
          -100 -19 53 -71 107 hhcurveto
          116 59 80 96 16 hvcurveto
          47 270 rlineto
          295 hlineto
          4 11 12 3 13 hhcurveto
          66 17 131 callsubr
          -93 hlineto
          -111 -93 -62 -114 -21 hvcurveto
          -106 -18 65 -71 107 hhcurveto
          endchar
        </CharString>
        <CharString name="dvG_BH_YA">
          1072 1261 182 rmoveto
          -127 -65 73 125 24 hvcurveto
          2 9 127 6 81 63 22 129 rlinecurve
          15 83 rlineto
          201 42 callsubr
          -600 -10 -45 callgsubr
          131 hlineto
          -169 -31 90 -104 166 hhcurveto
          103 76 45 58 45 hvcurveto
          -38 -215 324 callsubr
          -704 -95 callsubr
          204 241 callgsubr
          -116 -20 -73 -31 -93 hhcurveto
          -166 288 callsubr
          -668 -95 callsubr
          -103 callgsubr
          177 188 callgsubr
          -93 hlineto
          -111 -93 -62 -114 -21 hvcurveto
          124 callsubr
        </CharString>
        <CharString name="dvG_DA">
          448 908 176 callgsubr
          -1107 -95 callsubr
          -103 callgsubr
          474 81 callgsubr
          105 callgsubr
        </CharString>
        <CharString name="dvG_DHA">
          545 691 98 rmoveto
          105 88 47 75 53 hvcurveto
          -39 -220 rlineto
          -60 callgsubr
          9 49 78 callgsubr
          -22 263 callgsubr
          -649 -95 callsubr
          -103 callgsubr
          158 hlineto
          -17 -24 -12 -28 -5 -32 246 callgsubr
        </CharString>
        <CharString name="dvG_DH_VA">
          967 710 97 -46 callgsubr
          -648 -95 callsubr
          -103 callgsubr
          157 hlineto
          -17 -24 -12 -28 -5 -32 27 callgsubr
          471 66 90 callsubr
          endchar
        </CharString>
        <CharString name="dvG_DH_YA">
          1020 1210 182 rmoveto
          -126 -65 79 125 24 hvcurveto
          2 1 3 2 vvcurveto
          127 5 80 60 23 21 callsubr
          -499 -85 -47 callgsubr
          330 callsubr
          -19 hvcurveto
          -649 -95 callsubr
          -103 callgsubr
          158 131 callgsubr
          -60 -8 -71 -43 -17 -89 rrcurveto
          -117 -20 100 -63 125 hhcurveto
          endchar
        </CharString>
        <CharString name="dvG_GA">
          590 942 hmoveto
          41 callsubr
          -1249 -95 callsubr
          -103 callgsubr
          367 -30 callsubr
          -12 50 48 9 hvcurveto
          6 31 rlineto
          -82 hlineto
          -6 -30 rlineto
          -100 -18 52 -71 107 hhcurveto
          116 59 80 96 16 hvcurveto
          47 270 rlineto
          178 hlineto
          endchar
        </CharString>
        <CharString name="dvG_GHA">
          540 724 150 callsubr
          251 -174 345 callgsubr
          -1198 -95 callsubr
          -103 callgsubr
          155 172 callgsubr
          88 -65 125 hhcurveto
          97 85 44 72 54 hvcurveto
          -39 -221 rlineto
          endchar
        </CharString>
        <CharString name="dvG_JA">
          674 1108 hmoveto
          123 callgsubr
          -1332 -95 callsubr
          -103 callgsubr
          712 hlineto
          -30 -171 rlineto
          -271 -97 callsubr
          17 95 rcurveline
          189 303 callgsubr
          endchar
        </CharString>
        <CharString name="dvG_LA">
          743 1268 274 callsubr
          -1402 -95 callsubr
          -103 callgsubr
          668 hlineto
          -23 -129 -93 -12 -54 -67 -28 -64 rlinecurve
          -2 hlineto
          69 -5 -40 76 -107 hhcurveto
          -122 -96 -82 -144 -25 hvcurveto
          -139 -25 66 -109 158 75 callsubr
          rrcurveto
          endchar
        </CharString>
        <CharString name="dvG_MA">
          638 1069 454 25 callsubr
          -453 -498 -98 callgsubr
          419 -172 214 callsubr
          -1296 -95 callsubr
          -103 callgsubr
          415 -75 callsubr
          183 hlineto
          -68 -385 rlineto
          endchar
        </CharString>
        <CharString name="dvG_NA">
          636 687 188 -100 callsubr
          383 -188 181 callgsubr
          -1294 -95 callsubr
          -103 callgsubr
          674 hlineto
          -29 -166 rlineto
          -328 hlineto
          -125 -98 -68 -122 -22 hvcurveto
          130 callgsubr
          endchar
        </CharString>
        <CharString name="dvG_NNA">
          698 709 254 -51 callgsubr
          423 -254 181 callgsubr
          -1356 -95 callsubr
          -103 callgsubr
          160 -27 callsubr
          195 94 callsubr
          endchar
        </CharString>
        <CharString name="dvG_N_YA">
          1094 681 9 callgsubr
          -1753 -95 callsubr
          -103 callgsubr
          849 241 callgsubr
          -102 -18 -71 -34 -116 hhcurveto
          -321 hlineto
          -124 -98 -67 286 callsubr
          68 callgsubr
        </CharString>
        <CharString name="dvG_R">
          86 callsubr
          endchar
        </CharString>
        <CharString name="dvG_RA">
          141 494 328 callgsubr
          -798 0 callgsubr
          35 callgsubr
          -18 49 -75 109 hhcurveto
          118 57 79 96 17 hvcurveto
          37 217 rlineto
          178 hlineto
          -58 -333 -427 -357 rlineto
          99 hlineto
          315 269 rlineto
          endchar
        </CharString>
        <CharString name="dvG_R_YA">
          578 767 182 rmoveto
          -104 callgsubr
          -24 -70 rmoveto
          103 77 45 59 45 hvcurveto
          -38 -216 -33 callsubr
          -1236 0 callgsubr
          35 callgsubr
          -18 49 -75 109 hhcurveto
          118 57 79 96 17 hvcurveto
          37 217 rlineto
          333 0 callsubr
          -6 -32 -1 -30 2 -28 -390 -324 rcurveline
          99 hlineto
          305 261 rlineto
          -81 31 76 -48 108 hhcurveto
          endchar
        </CharString>
        <CharString name="dvG_SA">
          650 901 579 -81 callgsubr
          -1308 -95 callsubr
          -103 callgsubr
          403 -67 callgsubr
          -200 -83 callsubr
          endchar
        </CharString>
        <CharString name="dvG_VA">
          513 726 163 -73 callgsubr
          -1171 -95 callsubr
          -103 callgsubr
          552 1 callgsubr
          -130 -108 -87 -138 -24 hvcurveto
          -150 -28 84 -92 134 -70 callsubr
        </CharString>
        <CharString name="dvG_YA">
          577 766 182 rmoveto
          -104 callgsubr
          246 -182 rmoveto
          -84 callsubr
          -1236 -95 callsubr
          -103 callgsubr
          332 0 callsubr
          rrcurveto
          -171 149 callgsubr
        </CharString>
        <CharString name="dvGx">
          -106 26 670 rmoveto
          -103 callgsubr
          128 -95 callgsubr
          -533 hlineto
          122 -712 rmoveto
          -104 callsubr
          endchar
        </CharString>
        <CharString name="dvGxA">
          141 492 hmoveto
          41 callsubr
          -799 -95 callsubr
          -103 callgsubr
          178 hlineto
          -449 -642 rmoveto
          -104 callsubr
          endchar
        </CharString>
        <CharString name="dvGx_R">
          86 callsubr
          6 -684 -26 callgsubr
          endchar
        </CharString>
        <CharString name="dvGx_RA">
          141 494 328 callgsubr
          -798 0 callgsubr
          35 callgsubr
          -18 49 -75 109 hhcurveto
          118 57 79 96 17 hvcurveto
          37 217 rlineto
          178 hlineto
          -58 -333 -427 -357 rlineto
          99 hlineto
          315 269 rlineto
          -493 -193 -26 callgsubr
          endchar
        </CharString>
</ttFont>
